<svg width="349" height="469" viewBox="0 0 349 469" fill="none" xmlns="http://www.w3.org/2000/svg">
<g opacity="0.2">
<path d="M182.846 468.948C253.492 468.948 310.762 461.985 310.762 453.396C310.762 444.806 253.492 437.843 182.846 437.843C112.2 437.843 54.9297 444.806 54.9297 453.396C54.9297 461.985 112.2 468.948 182.846 468.948Z" fill="#000072"/>
</g>
<path d="M286.083 366.26C271.387 391.234 240.33 381.737 240.33 381.737L248.28 357.303C254.432 362.412 261.589 363.829 268.227 363.552C266.062 366.745 264.414 370.259 263.344 373.965C271.749 372.104 279.577 368.232 286.157 362.681C286.461 363.231 286.614 363.852 286.601 364.481C286.588 365.109 286.409 365.723 286.083 366.26Z" fill="#FFCF69"/>
<path d="M286.083 366.26C271.387 391.234 240.33 381.737 240.33 381.737L248.28 357.303C254.432 362.412 261.589 363.829 268.227 363.552C273.239 363.35 277.957 362.187 281.715 360.911C282.544 360.623 283.449 360.643 284.264 360.966C285.08 361.29 285.751 361.896 286.157 362.674V362.681C286.461 363.231 286.614 363.852 286.601 364.481C286.588 365.109 286.409 365.723 286.083 366.26Z" fill="#FAA327"/>
<g opacity="0.2">
<path d="M286.084 366.26C271.388 391.234 240.331 381.737 240.331 381.737L248.281 357.303C254.433 362.412 261.59 363.829 268.228 363.552C267.488 364.642 266.808 365.771 266.189 366.933C264.687 369.759 267.539 372.961 270.536 371.834C276.225 369.693 281.508 366.598 286.157 362.681C286.46 363.231 286.614 363.852 286.601 364.48C286.588 365.109 286.41 365.723 286.084 366.26Z" fill="#000072"/>
</g>
<path d="M253.882 386.739C245.749 386.739 239.676 384.916 239.382 384.827C238.972 384.701 238.591 384.495 238.261 384.221C237.931 383.946 237.66 383.609 237.462 383.229C237.264 382.848 237.144 382.432 237.109 382.004C237.073 381.577 237.124 381.147 237.256 380.739L245.22 356.303C245.384 355.802 245.667 355.349 246.046 354.983C246.425 354.617 246.888 354.349 247.394 354.203C247.9 354.057 248.434 354.037 248.95 354.144C249.466 354.252 249.947 354.484 250.353 354.82C259.768 362.634 272.047 360.781 280.69 357.852C282.026 357.398 283.468 357.364 284.824 357.754C286.18 358.144 287.384 358.94 288.274 360.034C289.165 361.128 289.699 362.469 289.805 363.875C289.912 365.282 289.585 366.688 288.87 367.903C282.304 379.062 271.611 385.523 257.951 386.587C256.547 386.693 255.189 386.739 253.882 386.739ZM244.477 379.415C252.344 380.958 272.584 382.831 283.297 364.626C283.353 364.549 283.379 364.455 283.371 364.361C283.364 364.267 283.323 364.179 283.257 364.111C283.203 364.033 283.124 363.975 283.033 363.949C282.942 363.922 282.844 363.928 282.757 363.966C270.221 368.217 258.78 367.653 250.002 362.452L244.477 379.415Z" fill="#000072"/>
<path d="M278.589 330.536C278.379 335.96 276.601 340.304 274.171 343.731C268.176 352.21 258.237 355.142 258.237 355.142C258.356 363.769 256.676 373.92 250.637 383.514L250.577 383.597C249.924 384.64 249.212 385.667 248.454 386.696C247.387 388.132 246.242 389.51 245.025 390.821V416.14C245.025 416.14 262.243 418.66 267.928 428.743C269.135 430.853 269.761 433.245 269.744 435.675C269.744 449.929 236.238 460.116 195.543 448.571C190.642 447.175 185.817 445.525 181.087 443.627C176.352 445.53 171.519 447.18 166.609 448.571C125.925 460.116 92.4299 449.929 92.4299 435.675C92.415 433.264 93.0275 430.891 94.2071 428.788C99.8783 418.668 117.141 416.14 117.141 416.14V390.821C114.513 387.988 112.227 384.856 110.329 381.489C110.323 381.478 110.315 381.468 110.306 381.459C97.5155 358.713 107.907 333.677 107.907 333.677C55.3259 369.123 31.8821 319.212 25.4825 311.971C19.0829 304.729 -5.78121 298.953 7.71868 287.378C9.86304 285.539 11.9725 284.541 14.0804 284.122C16.1359 283.71 18.1987 283.852 20.2833 284.302C29.5717 286.282 39.5418 294.332 53.1947 287.378C65.956 280.881 77.718 279.434 84.5895 280.956C88.431 281.804 90.7415 283.578 90.8537 285.93C91.0489 290.033 87.2831 292.315 83.7577 294.609C81.6119 296.005 80.0969 297.453 79.0465 298.818C76.825 301.699 79.3685 305.81 82.8793 304.97C88.3262 303.679 97.4033 299.853 110.277 289.066C111.813 287.775 113.393 286.547 115.017 285.382C117.276 283.751 119.639 282.27 122.091 280.949C135.565 273.68 153.021 270.851 181.09 275.802C218.037 269.29 236.611 276.239 251.9 289.059C251.9 289.059 252.066 289.193 252.366 289.449C252.395 289.478 252.433 289.502 252.463 289.531C255.825 292.454 259.025 295.557 262.05 298.826C269.767 307.161 279.017 319.508 278.589 330.536Z" fill="#FAA327"/>
<g opacity="0.2">
<path d="M84.5904 280.956C83.7289 284.159 82.3697 287.207 80.5624 289.988C77.4114 294.902 72.9872 299.141 67.5389 301.226C64.0805 302.547 60.3599 302.974 56.6758 303.357C52.5881 303.794 48.4465 304.212 44.3806 303.597C38.4545 302.704 32.9785 299.62 28.6562 295.466C25.4688 292.389 22.3324 288.428 20.2842 284.295C29.5725 286.275 39.5427 294.325 53.1955 287.37C65.9568 280.879 77.7188 279.434 84.5904 280.956Z" fill="#0B005B"/>
</g>
<g opacity="0.2">
<path d="M253.778 289.653C237.514 298.334 217.244 303.492 195.256 303.492C166.757 303.492 141.138 294.844 123.403 281.07C136.877 273.8 154.333 270.973 182.403 275.923C219.349 269.411 237.924 276.36 253.213 289.18C253.213 289.18 253.378 289.315 253.678 289.57C253.711 289.601 253.748 289.62 253.778 289.653Z" fill="#0B005B"/>
</g>
<path d="M180.967 399.1C210.154 399.1 233.816 381.467 233.816 359.715C233.816 337.963 210.154 320.33 180.967 320.33C151.779 320.33 128.118 337.963 128.118 359.715C128.118 381.467 151.779 399.1 180.967 399.1Z" fill="white"/>
<path d="M229.837 456.8C215.415 456.8 198.538 453.927 181.088 447.099C145.324 461.084 111.945 458.477 97.2767 448.556C90.6017 444.04 89.2003 439.059 89.2003 435.677C89.2003 420.512 106.912 415.045 113.912 413.477V392.063C97.9424 373.983 99.7182 352.494 102.37 340.873C84.3755 350.902 67.7931 352.197 52.985 344.699C39.3657 337.802 30.6149 324.968 25.9124 318.075C24.7266 316.335 23.701 314.832 23.06 314.105C21.4853 312.325 17.9847 310.338 14.5991 308.424C7.99121 304.674 1.1575 300.797 0.57042 294.715C0.24556 291.365 1.9427 288.078 5.61231 284.932C13.7207 277.98 21.7825 281.023 28.8959 283.704C36.104 286.425 42.9115 288.992 51.7249 284.505C68.0946 276.172 83.3135 275.691 89.8923 279.521C92.4737 281.025 93.9567 283.252 94.0703 285.785C94.3471 291.579 89.665 294.618 85.9037 297.059L85.5089 297.316C83.8598 298.388 82.5429 299.556 81.596 300.787C81.4982 300.897 81.4407 301.036 81.4331 301.183C81.4254 301.329 81.468 301.474 81.5537 301.593C81.6042 301.695 81.6899 301.775 81.7949 301.818C81.8999 301.861 82.0172 301.865 82.1248 301.829C87.1419 300.64 95.7339 297.032 108.201 286.591C126.939 270.885 148.086 266.795 181.093 272.524C214.099 266.795 235.243 270.884 253.973 286.588C253.973 286.588 254.155 286.734 254.459 286.997C259.163 291.033 282.536 312.061 281.822 330.66C281.606 336.184 279.921 341.21 276.811 345.597C272.015 352.379 265.044 355.927 261.461 357.397C261.156 370.654 256.621 382.566 248.261 392.06V413.474C255.261 415.042 272.978 420.507 272.978 435.674C272.978 439.057 271.576 444.037 264.901 448.552C257.384 453.634 244.965 456.799 229.837 456.8ZM181.088 440.395C181.499 440.396 181.907 440.475 182.289 440.627C216.049 454.166 248.184 452.06 261.278 443.202C263.668 441.587 266.515 438.969 266.515 435.672C266.515 422.694 244.778 419.364 244.558 419.332C243.791 419.22 243.09 418.835 242.583 418.248C242.076 417.662 241.797 416.912 241.797 416.137V390.821C241.798 390.011 242.104 389.231 242.654 388.636C251.033 379.568 255.182 368.314 255.007 355.193C254.998 354.488 255.219 353.8 255.637 353.233C256.055 352.665 256.647 352.25 257.323 352.051C257.403 352.026 266.293 349.283 271.534 341.874C273.91 338.523 275.198 334.669 275.362 330.416C275.976 314.455 252.893 294.172 250.259 291.913C250.016 291.704 249.87 291.586 249.856 291.575C237.245 281 220.283 272.178 181.647 278.988C181.276 279.054 180.897 279.054 180.527 278.988C141.896 272.182 124.925 281.001 112.343 291.547C98.9155 302.797 89.3096 306.767 83.6165 308.118C82.2101 308.461 80.7313 308.355 79.3884 307.814C78.0455 307.273 76.906 306.324 76.1302 305.102C75.3179 303.863 74.9149 302.401 74.9779 300.921C75.0408 299.441 75.5667 298.018 76.4813 296.852C77.8739 295.045 79.7269 293.379 81.9893 291.908L82.3885 291.649C85.707 289.494 87.7144 288.046 87.6212 286.09C87.6095 285.826 87.2249 285.442 86.6422 285.102C82.4176 282.636 69.6927 282.607 54.6589 290.261C43.3062 296.044 34.0543 292.552 26.6204 289.748C19.2156 286.954 14.7827 285.58 9.81946 289.835C8.70649 290.791 6.8593 292.615 7.00206 294.096C7.2672 296.838 13.3492 300.289 17.7822 302.808C21.8058 305.092 25.6065 307.248 27.8951 309.837C28.8055 310.867 29.8821 312.444 31.2456 314.443C40.6141 328.182 62.5516 360.356 106.096 331.001C106.671 330.613 107.356 330.422 108.049 330.454C108.742 330.487 109.406 330.741 109.943 331.18C110.48 331.619 110.861 332.22 111.03 332.892C111.2 333.565 111.148 334.274 110.883 334.915C110.758 335.218 98.4872 365.896 119.506 388.636C120.056 389.231 120.362 390.011 120.364 390.821V416.14C120.363 416.916 120.084 417.667 119.575 418.253C119.067 418.84 118.364 419.224 117.596 419.335C117.382 419.367 95.6465 422.747 95.6465 435.675C95.6465 438.972 98.4945 441.59 100.882 443.205C113.977 452.063 146.111 454.171 179.874 440.63C180.26 440.475 180.672 440.395 181.088 440.395Z" fill="#000072"/>
<path d="M203.713 143.163L103.366 52.166C100.054 49.1621 101.228 43.6992 105.481 42.3211L221.832 4.60973C225.633 3.37802 229.692 3.17121 233.598 4.01018C237.504 4.84916 241.12 6.7042 244.08 9.38794L335.532 92.3146C338.467 94.9776 337.426 99.8184 333.658 101.041L203.713 143.163Z" fill="#7D7D7D"/>
<g opacity="0.6">
<path d="M333.661 101.046L333.345 101.151L242.55 18.8249C239.591 16.1423 235.976 14.2879 232.071 13.449C228.166 12.61 224.109 12.8162 220.309 14.0467L103.953 51.7581C103.704 51.8404 103.461 51.9377 103.224 52.0494C100.073 49.0266 101.283 43.6919 105.475 42.3342L221.829 4.61699C225.63 3.38548 229.689 3.17877 233.596 4.01772C237.503 4.85668 241.119 6.7116 244.08 9.39519L335.528 92.3204C338.468 94.9848 337.434 99.8228 333.661 101.046Z" fill="white"/>
</g>
<g opacity="0.2">
<path d="M333.66 101.046L203.716 143.162L103.367 52.1659C100.051 49.1665 101.228 43.705 105.482 42.324L110.816 40.5992C140.336 58.0804 191.243 69.6312 249.09 69.6312C269.151 69.6312 288.385 68.2429 306.172 65.6979L335.528 92.3145C338.467 94.9848 337.433 99.8227 333.66 101.046Z" fill="#0B005B"/>
</g>
<path d="M203.713 146.391C202.911 146.392 202.138 146.094 201.544 145.555L101.197 54.5638C100.022 53.4984 99.1482 52.1428 98.6624 50.6331C98.1766 49.1233 98.0962 47.5123 98.4293 45.9617C98.7623 44.4111 99.4971 42.9752 100.56 41.798C101.623 40.6209 102.976 39.7438 104.485 39.2546L220.837 1.54468C225.18 0.145093 229.814 -0.0870341 234.274 0.871631C238.735 1.8303 242.864 3.94598 246.248 7.00612L337.701 89.9328C338.79 90.9203 339.6 92.1768 340.051 93.5763C340.501 94.9757 340.575 96.4689 340.267 97.9063C339.958 99.3436 339.277 100.675 338.292 101.766C337.307 102.857 336.052 103.67 334.653 104.123L204.709 146.238C204.387 146.342 204.051 146.393 203.713 146.391ZM228.81 6.7439C226.779 6.74311 224.761 7.06166 222.829 7.68788L106.477 45.3978C106.045 45.5379 105.657 45.789 105.353 46.126C105.049 46.4629 104.839 46.8739 104.743 47.3177C104.648 47.7615 104.671 48.2225 104.81 48.6547C104.949 49.0868 105.199 49.4748 105.535 49.7798L204.495 139.517L332.662 97.977C332.983 97.8727 333.272 97.6857 333.498 97.4348C333.725 97.1839 333.882 96.8779 333.953 96.5474C334.024 96.2169 334.006 95.8735 333.903 95.5517C333.799 95.2299 333.613 94.941 333.363 94.7139L241.911 11.7858C238.32 8.53884 233.651 6.74193 228.81 6.7439Z" fill="#000072"/>
<path d="M276.944 104.464C280.266 86.7479 253.561 66.8737 217.297 60.0739C181.033 53.2742 148.942 62.124 145.62 79.8404C142.298 97.5568 169.003 117.431 205.267 124.231C241.531 131.031 273.622 122.181 276.944 104.464Z" fill="#3D3D3D"/>
<path d="M229.342 129.768C221.558 129.768 213.242 129.003 204.655 127.394C166.051 120.158 138.722 99.0055 142.428 79.2386C144.274 69.3908 153.435 61.7224 168.226 57.642C182.227 53.7801 199.86 53.5135 217.871 56.8888C235.883 60.2642 252.22 66.9012 263.873 75.5719C276.183 84.7321 281.937 95.199 280.099 105.045C277.223 120.414 256.547 129.768 229.342 129.768ZM193.317 60.9896C184.838 60.9896 176.895 61.9511 169.948 63.8668C157.841 67.2071 150.126 73.2425 148.782 80.4273C145.846 96.0963 171.982 114.696 205.853 121.046C239.724 127.397 270.825 119.524 273.762 103.857C275.108 96.6718 270.102 88.2502 260.027 80.7536C249.142 72.6554 233.753 66.4423 216.687 63.2374C208.689 61.737 200.789 60.9896 193.317 60.9896Z" fill="#000072"/>
<path d="M292.138 268.48C268.913 284.093 227.458 294.325 176.068 284.76C124.314 277.476 88.2675 254.587 71.2145 232.389C54.1616 210.191 71.7331 191.713 80.6151 189.95C80.6151 189.95 82.8279 171.908 91.9779 150.746C102.06 127.408 120.574 100.28 153.845 89.3807C168.85 84.4597 186.876 82.8456 208.474 86.3724C324.304 105.292 296.727 225.255 296.727 225.255C304.592 229.746 315.356 252.861 292.138 268.48Z" fill="#FAA327"/>
<g opacity="0.2">
<path d="M148.604 106.212C155.034 140.301 131.245 165.686 114.524 166.96C106.422 167.576 98.2523 159.376 91.9736 150.756C102.056 127.418 120.57 100.29 153.841 89.3909L148.604 106.212Z" fill="#000072"/>
</g>
<path d="M241.571 208.766C247.097 208.766 251.578 202.547 251.578 194.876C251.578 187.204 247.097 180.985 241.571 180.985C236.045 180.985 231.564 187.204 231.564 194.876C231.564 202.547 236.045 208.766 241.571 208.766Z" fill="#000072"/>
<path d="M241.579 211.996C234.156 211.996 228.344 204.476 228.344 194.876C228.344 185.275 234.156 177.757 241.579 177.757C249.001 177.757 254.815 185.277 254.815 194.876C254.815 204.474 248.993 211.996 241.579 211.996ZM241.579 184.215C237.905 184.215 234.8 189.097 234.8 194.876C234.8 200.655 237.905 205.538 241.579 205.538C245.252 205.538 248.358 200.656 248.358 194.876C248.358 189.095 245.247 184.215 241.579 184.215Z" fill="#000072"/>
<path d="M229.066 200.373C228.298 195.965 228.297 191.205 229.795 186.517C230.185 185.334 230.673 184.185 231.251 183.082C231.858 181.935 232.591 180.861 233.436 179.877C234.279 178.888 235.225 177.993 236.258 177.206C237.303 176.435 238.426 175.777 239.609 175.241C240.797 174.696 242.045 174.292 243.328 174.038C244.632 173.796 245.96 173.72 247.283 173.809C249.949 173.946 252.476 174.943 254.586 176.286C256.597 177.65 258.317 179.401 259.647 181.435C260.904 183.346 261.839 185.451 262.415 187.665C262.514 188.036 262.478 188.43 262.313 188.777C262.147 189.124 261.864 189.401 261.513 189.558C261.162 189.715 260.766 189.741 260.398 189.632C260.029 189.524 259.711 189.287 259.501 188.965L259.475 188.926C258.375 187.279 257.196 185.759 255.877 184.47C255.555 184.141 255.204 183.851 254.87 183.548C254.509 183.28 254.176 182.978 253.811 182.738C253.122 182.233 252.384 181.8 251.608 181.444C248.6 180.027 245.469 180.199 242.662 181.642C241.272 182.373 240.041 183.374 239.044 184.586C238.543 185.19 238.111 185.847 237.754 186.546C237.359 187.281 237.023 188.047 236.752 188.837C235.626 192.073 235.368 195.83 235.483 199.657V199.712C235.51 200.531 235.225 201.33 234.685 201.947C234.146 202.563 233.393 202.953 232.577 203.035C231.762 203.118 230.946 202.888 230.293 202.392C229.641 201.896 229.201 201.171 229.063 200.363L229.066 200.373Z" fill="#000072"/>
<path d="M156.302 176.791C157.829 169.273 154.676 162.287 149.26 161.187C143.844 160.087 138.216 165.29 136.689 172.808C135.163 180.326 138.315 187.312 143.731 188.412C149.147 189.512 154.775 184.309 156.302 176.791Z" fill="#000072"/>
<path d="M145.232 191.786C144.51 191.786 143.79 191.713 143.082 191.569C139.471 190.84 136.4 188.201 134.658 184.339C133.055 180.778 132.646 176.453 133.518 172.159C134.391 167.864 136.451 164.039 139.318 161.387C142.429 158.512 146.286 157.282 149.895 158.015C153.505 158.748 156.578 161.384 158.321 165.246C159.924 168.807 160.333 173.132 159.459 177.426C157.739 185.898 151.727 191.786 145.232 191.786ZM147.79 164.262C146.013 164.262 144.502 165.389 143.701 166.129C141.848 167.844 140.442 170.51 139.847 173.444C139.251 176.378 139.504 179.381 140.543 181.682C141.06 182.825 142.243 184.809 144.367 185.241C147.967 185.969 151.981 181.805 153.132 176.142C153.728 173.206 153.475 170.204 152.436 167.904C151.919 166.758 150.736 164.776 148.611 164.345C148.341 164.289 148.066 164.262 147.79 164.262Z" fill="#000072"/>
<path d="M151.502 180.698C152.418 176.976 152.959 173.259 152.571 169.824C152.47 168.984 152.311 168.152 152.096 167.334C151.891 166.56 151.603 165.81 151.238 165.098C150.882 164.376 150.454 163.693 149.959 163.058C149.451 162.428 148.887 161.846 148.274 161.319C145.797 159.182 142.54 158.324 139.15 159.134C137.382 159.585 135.707 160.339 134.197 161.363C132.581 162.46 131.097 163.741 129.774 165.178L129.754 165.2C129.557 165.409 129.291 165.54 129.005 165.568C128.719 165.596 128.432 165.52 128.198 165.353C127.964 165.187 127.799 164.941 127.732 164.661C127.665 164.382 127.702 164.088 127.835 163.833C129.858 159.977 133.068 156.414 137.595 154.51C138.747 154.043 139.949 153.713 141.178 153.528C142.443 153.349 143.726 153.335 144.994 153.487C147.568 153.766 150.003 154.798 152.086 156.244C154.184 157.709 155.932 159.62 157.205 161.84C157.844 162.95 158.356 164.128 158.73 165.353C159.101 166.531 159.365 167.739 159.52 168.964C160.129 173.817 159.228 178.491 157.642 182.671C157.348 183.438 156.772 184.065 156.032 184.423C155.293 184.781 154.445 184.844 153.66 184.6C152.875 184.355 152.213 183.821 151.808 183.106C151.403 182.39 151.286 181.548 151.48 180.749L151.502 180.698Z" fill="#000072"/>
<path d="M155.519 172.698C156.236 169.166 155.05 165.943 152.869 165.501C150.688 165.058 148.339 167.562 147.621 171.094C146.904 174.627 148.09 177.849 150.271 178.292C152.452 178.735 154.801 176.231 155.519 172.698Z" fill="white"/>
<g opacity="0.35">
<path d="M137.553 182.196C138.721 182.196 139.667 179.882 139.667 177.029C139.667 174.175 138.721 171.862 137.553 171.862C136.386 171.862 135.439 174.175 135.439 177.029C135.439 179.882 136.386 182.196 137.553 182.196Z" fill="white"/>
</g>
<g opacity="0.35">
<path d="M246.661 200.333C245.546 202.955 245.513 205.459 246.588 205.915C247.663 206.371 249.437 204.604 250.553 201.982C251.669 199.359 251.7 196.855 250.625 196.399C249.55 195.943 247.775 197.706 246.661 200.333Z" fill="white"/>
</g>
<path d="M243.362 189.469C244.04 186.129 242.639 183.024 240.231 182.535C237.824 182.046 235.323 184.358 234.644 187.699C233.966 191.04 235.367 194.144 237.775 194.633C240.182 195.122 242.683 192.81 243.362 189.469Z" fill="white"/>
<g opacity="0.6">
<path d="M299.49 201.159C298.409 164.181 283.675 109.26 208.442 96.9646C203.545 96.1531 198.61 95.5973 193.655 95.2995C193.818 95.6258 193.903 95.9853 193.903 96.3498C193.903 99.5824 187.167 102.209 178.862 102.209C171.352 102.209 165.119 100.063 164.003 97.2559C91.3857 112.366 80.5765 200.551 80.5765 200.551C75.2811 201.601 66.893 208.6 64.6059 218.796C61.2815 203.063 73.6306 191.339 80.6143 189.952C80.6143 189.952 95.5812 67.9341 208.477 86.3753C291.313 99.9058 300.802 165.105 299.49 201.159Z" fill="white"/>
</g>
<path d="M298.266 226.342C297.788 225.934 297.274 225.57 296.729 225.255C296.729 225.255 298.964 215.516 299.497 201.159C299.736 209.572 299.324 217.992 298.266 226.342Z" fill="#FFCF69"/>
<path d="M296.73 225.255C287.884 219.373 277.152 215.769 251.143 218.334C251.143 218.334 231.922 186.994 192.996 181.148C154.231 174.302 126.038 197.901 126.038 197.901C102.197 187.194 90.8748 187.195 80.6177 189.958C71.8771 192.31 54.1729 210.198 71.2157 232.395C88.2585 254.591 124.311 277.477 176.071 284.76C227.459 294.326 268.913 284.097 292.139 268.482C315.366 252.867 304.265 230.266 296.73 225.255Z" fill="white"/>
<path d="M85.9644 167.086C85.9644 167.086 85.9409 167.093 85.9336 167.093L85.9791 166.946C85.9717 167.04 85.9644 167.086 85.9644 167.086Z" fill="#FFCF69"/>
<g opacity="0.2">
<path d="M292.138 268.48C268.912 284.093 227.457 294.325 176.068 284.76C124.313 277.476 88.267 254.587 71.214 232.389C59.9765 217.76 63.7845 204.736 70.2249 197.062C65.2471 200.375 73.4414 254.13 180.967 271.461C263.464 284.757 302.284 251.528 305.385 238.638C307.667 247.665 305.702 259.358 292.138 268.48Z" fill="#000072"/>
</g>
<path d="M176.076 287.986C175.924 287.987 175.772 287.976 175.621 287.954C129.432 281.462 89.4447 261.419 68.661 234.358C68.1599 233.678 67.9456 232.828 68.0641 231.991C68.1827 231.154 68.6245 230.397 69.2949 229.882C69.9652 229.367 70.8107 229.136 71.6498 229.237C72.4888 229.339 73.2547 229.765 73.783 230.425C93.5645 256.176 131.974 275.294 176.526 281.558C177.336 281.67 178.073 282.086 178.589 282.72C179.104 283.355 179.36 284.162 179.303 284.978C179.247 285.794 178.883 286.558 178.285 287.116C177.687 287.674 176.9 287.984 176.082 287.984L176.076 287.986Z" fill="#0B005B"/>
<path d="M250.173 218.931C249.31 217.833 248.361 216.692 247.395 215.62C246.43 214.548 245.452 213.46 244.432 212.425C242.413 210.342 240.317 208.346 238.126 206.453C233.803 202.663 229.16 199.256 224.247 196.27C223.018 195.541 221.785 194.822 220.524 194.16C219.905 193.805 219.277 193.471 218.639 193.154C218.001 192.836 217.379 192.494 216.735 192.189C214.174 190.954 211.553 189.858 208.892 188.885C206.22 187.941 203.531 187.048 200.779 186.39C198.05 185.65 195.265 185.159 192.423 184.69C189.581 184.221 186.779 183.836 183.96 183.66C181.141 183.411 178.308 183.434 175.478 183.463C172.647 183.548 169.82 183.772 166.999 184.135C164.188 184.544 161.375 184.997 158.592 185.632C152.994 186.92 147.518 188.692 142.227 190.928C139.561 192.025 136.95 193.27 134.384 194.608C133.094 195.267 131.833 195.978 130.58 196.705C129.327 197.432 128.074 198.204 126.925 198.966L126.864 199.007C126.572 199.214 126.212 199.302 125.858 199.251C125.504 199.201 125.183 199.016 124.961 198.735C124.74 198.455 124.634 198.1 124.667 197.743C124.7 197.387 124.868 197.057 125.137 196.822C127.414 194.68 129.799 192.889 132.305 191.154C134.811 189.441 137.407 187.865 140.082 186.431C145.47 183.553 151.147 181.254 157.019 179.572C159.968 178.721 162.964 178.04 165.991 177.533C169.031 177.035 172.094 176.69 175.169 176.5C181.324 176.177 187.496 176.547 193.569 177.603C196.561 178.102 199.599 178.689 202.578 179.52C205.555 180.328 208.484 181.306 211.351 182.446C217.046 184.799 222.528 187.659 227.54 191.187C230.046 192.932 232.462 194.803 234.78 196.793C237.081 198.791 239.268 200.91 241.353 203.114C243.417 205.331 245.362 207.657 247.18 210.081C248.985 212.523 250.664 214.994 252.112 217.735C252.245 217.988 252.278 218.281 252.206 218.558C252.134 218.834 251.961 219.073 251.722 219.229C251.482 219.384 251.193 219.445 250.912 219.399C250.63 219.353 250.375 219.203 250.198 218.979L250.173 218.931Z" fill="#000072"/>
<path d="M82.8275 303.552C82.8275 303.471 82.8071 303.511 82.7954 303.539C82.7793 303.57 82.7685 303.603 82.7634 303.637C82.7417 303.719 82.7256 303.803 82.7153 303.887C82.6818 304.066 82.6833 304.257 82.6673 304.452C82.6586 305.707 83.1273 306.918 83.9783 307.839C84.5916 308.533 85.4686 309.082 86.4286 309.572C86.9225 309.791 87.4484 309.977 87.9757 310.178L89.6452 310.615L89.7413 310.641C89.943 310.693 90.1195 310.815 90.2392 310.985C90.3589 311.155 90.4138 311.363 90.3941 311.57C90.3745 311.777 90.2815 311.971 90.1319 312.115C89.9823 312.26 89.7859 312.347 89.5782 312.36L87.6625 312.491C87.0128 312.469 86.3514 312.459 85.6813 312.396C84.3469 312.21 82.9455 311.904 81.6023 311.183C80.1971 310.433 78.9949 309.354 78.0988 308.038C77.6347 307.356 77.2519 306.623 76.9582 305.852C76.8137 305.458 76.6907 305.056 76.5896 304.648C76.5343 304.445 76.4935 304.225 76.4541 304.004C76.4337 303.897 76.4162 303.782 76.4031 303.653C76.3819 303.499 76.3712 303.344 76.3711 303.189C76.4192 302.335 76.8049 301.534 77.4434 300.963C78.0818 300.393 78.9207 300.1 79.7756 300.148C80.6304 300.196 81.4311 300.581 82.0015 301.22C82.572 301.858 82.8654 302.697 82.8173 303.552H82.8275Z" fill="#000072"/>
<path d="M255.007 355.142C255.015 354.941 255.007 354.626 255.007 354.35C255.007 354.073 254.988 353.767 254.978 353.476C254.961 352.893 254.917 352.296 254.869 351.698C254.821 351.101 254.776 350.505 254.703 349.905C254.63 349.305 254.583 348.706 254.493 348.107C254.308 346.91 254.168 345.705 253.923 344.512C253.703 343.316 253.486 342.117 253.195 340.931C252.114 336.148 250.653 331.46 248.825 326.91C248.404 325.753 247.853 324.652 247.368 323.519C246.883 322.385 246.386 321.258 245.806 320.168L244.135 316.867C243.541 315.786 242.904 314.728 242.29 313.662C241.108 311.486 239.66 309.477 238.317 307.398L237.806 306.621L237.251 305.876L236.135 304.388L233.902 301.409L233.843 301.332C233.603 301.006 233.499 300.6 233.553 300.198C233.606 299.797 233.814 299.432 234.131 299.181C234.448 298.929 234.85 298.81 235.253 298.849C235.656 298.888 236.028 299.082 236.291 299.39L238.757 302.327L239.991 303.797L240.606 304.535L241.178 305.306C242.684 307.376 244.297 309.385 245.648 311.57C246.347 312.647 247.068 313.712 247.748 314.803L249.678 318.143C250.346 319.246 250.924 320.397 251.502 321.548C252.081 322.698 252.707 323.83 253.217 325.016C255.407 329.71 257.219 334.571 258.636 339.553C259.015 340.796 259.319 342.062 259.624 343.329C259.955 344.589 260.18 345.878 260.45 347.159C260.581 347.8 260.671 348.451 260.785 349.098C260.898 349.745 260.996 350.396 261.076 351.056C261.156 351.716 261.25 352.367 261.308 353.04C261.34 353.377 261.378 353.703 261.398 354.06C261.419 354.417 261.449 354.727 261.461 355.155V355.186C261.473 356.035 261.15 356.855 260.561 357.468C259.973 358.081 259.167 358.438 258.317 358.461C257.468 358.484 256.644 358.172 256.023 357.591C255.403 357.011 255.036 356.21 255.001 355.361C255.006 355.282 255.006 355.208 255.007 355.142Z" fill="#000072"/>
<path d="M105.181 332.051C107.837 326.021 110.988 320.154 114.678 314.695C118.368 309.237 122.523 304.164 126.915 299.38C127.189 299.08 127.569 298.898 127.974 298.871C128.38 298.844 128.78 298.975 129.091 299.236C129.403 299.498 129.601 299.869 129.645 300.273C129.689 300.677 129.575 301.083 129.327 301.405V301.414C125.43 306.464 121.828 311.706 118.776 317.208C115.724 322.71 113.24 328.463 111.201 334.412C110.923 335.224 110.335 335.892 109.565 336.269C108.795 336.646 107.906 336.703 107.095 336.425C106.283 336.147 105.616 335.559 105.238 334.789C104.861 334.019 104.805 333.13 105.082 332.319C105.111 332.235 105.145 332.15 105.18 332.068L105.181 332.051Z" fill="#000072"/>
<path d="M181.089 446.856C180.232 446.856 179.411 446.516 178.806 445.911C178.2 445.305 177.86 444.484 177.859 443.628V399.1C177.85 398.671 177.927 398.243 178.085 397.844C178.243 397.444 178.479 397.08 178.78 396.772C179.081 396.465 179.44 396.221 179.836 396.055C180.233 395.888 180.658 395.802 181.088 395.802C181.518 395.802 181.944 395.888 182.34 396.055C182.736 396.221 183.095 396.465 183.396 396.772C183.697 397.08 183.933 397.444 184.091 397.844C184.249 398.243 184.326 398.671 184.317 399.1V443.628C184.317 444.484 183.977 445.305 183.371 445.911C182.766 446.516 181.945 446.856 181.089 446.856Z" fill="#000072"/>
<path d="M147.265 388.582C147.863 388.874 148.576 389.218 149.251 389.503C149.925 389.789 150.623 390.105 151.331 390.368C152.725 390.923 154.146 391.427 155.582 391.867C158.434 392.801 161.358 393.486 164.283 394.082C170.156 395.202 176.129 395.715 182.107 395.614C188.069 395.548 194.006 394.832 199.813 393.479C202.71 392.779 205.559 391.889 208.34 390.816C209.749 390.31 211.108 389.679 212.46 389.057C213.132 388.737 213.806 388.406 214.455 388.051C215.107 387.721 215.779 387.322 216.332 386.993L216.491 386.901C216.835 386.702 217.24 386.633 217.63 386.708C218.021 386.783 218.371 386.996 218.617 387.309C218.862 387.622 218.986 388.013 218.966 388.411C218.946 388.808 218.783 389.184 218.507 389.471C218.163 389.828 217.884 390.103 217.566 390.389C217.249 390.674 216.944 390.948 216.628 391.218C215.994 391.757 215.336 392.246 214.673 392.74C214.01 393.234 213.331 393.697 212.634 394.12C211.936 394.542 211.241 394.994 210.521 395.388C207.654 396.991 204.64 398.318 201.521 399.349C195.298 401.454 188.728 402.42 182.205 402.527C181.797 402.535 181.389 402.557 180.981 402.556L179.757 402.518L177.311 402.438C176.495 402.42 175.683 402.305 174.87 402.241C174.057 402.177 173.241 402.108 172.431 401.992C169.194 401.536 165.975 400.92 162.837 399.987C159.699 399.061 156.646 397.868 153.712 396.421C152.983 396.042 152.255 395.674 151.551 395.256C150.848 394.838 150.131 394.447 149.45 393.988C148.042 393.095 146.71 392.085 145.469 390.97C145.203 390.727 145.034 390.397 144.992 390.039C144.95 389.682 145.037 389.321 145.239 389.023C145.441 388.725 145.744 388.509 146.091 388.416C146.439 388.322 146.809 388.357 147.133 388.514L147.265 388.582Z" fill="#000072"/>
<path d="M116.712 412.94C117.345 412.894 117.817 412.889 118.349 412.881C118.881 412.874 119.376 412.881 119.884 412.891C120.904 412.918 121.908 412.96 122.909 413.037C124.91 413.183 126.891 413.41 128.855 413.726C130.819 414.042 132.764 414.418 134.682 414.902C136.607 415.356 138.498 415.922 140.364 416.523C140.782 416.655 141.134 416.941 141.348 417.324C141.563 417.706 141.623 418.156 141.518 418.581C141.412 419.007 141.149 419.376 140.781 419.614C140.412 419.852 139.968 419.941 139.536 419.862L139.491 419.853C137.645 419.523 135.801 419.223 133.945 419.035C132.094 418.818 130.233 418.719 128.382 418.654C126.53 418.59 124.68 418.637 122.846 418.74C121.93 418.788 121.019 418.871 120.119 418.966C119.672 419.017 119.222 419.068 118.785 419.134C118.348 419.199 117.877 419.269 117.559 419.339C116.727 419.503 115.864 419.333 115.155 418.867C114.447 418.401 113.949 417.676 113.769 416.847C113.589 416.018 113.742 415.152 114.193 414.434C114.645 413.716 115.361 413.204 116.186 413.008C116.33 412.977 116.476 412.955 116.623 412.944L116.712 412.94Z" fill="#000072"/>
<path d="M244.783 419.341C244.467 419.262 243.983 419.175 243.559 419.106C243.135 419.038 242.674 418.971 242.225 418.909C241.325 418.796 240.414 418.694 239.496 418.618C237.661 418.472 235.805 418.403 233.942 418.417C232.079 418.432 230.208 418.506 228.34 418.685C226.467 418.831 224.604 419.102 222.736 419.399H222.704C222.393 419.449 222.074 419.379 221.81 419.205C221.547 419.031 221.359 418.764 221.283 418.458C221.207 418.152 221.249 417.828 221.4 417.551C221.551 417.274 221.801 417.064 222.1 416.962C223.951 416.331 225.823 415.726 227.73 415.234C229.633 414.715 231.569 414.31 233.519 413.948C235.47 413.585 237.453 413.33 239.445 413.142C240.445 413.046 241.45 412.983 242.465 412.938C242.975 412.919 243.485 412.902 244.002 412.899C244.519 412.896 245.006 412.899 245.641 412.928H245.746C246.172 412.952 246.589 413.059 246.973 413.244C247.358 413.429 247.702 413.688 247.986 414.006C248.27 414.323 248.489 414.694 248.63 415.097C248.771 415.499 248.832 415.926 248.808 416.351C248.784 416.777 248.677 417.194 248.492 417.579C248.307 417.963 248.048 418.307 247.731 418.591C247.413 418.876 247.042 419.095 246.639 419.236C246.237 419.377 245.811 419.437 245.385 419.414C245.182 419.406 244.981 419.382 244.783 419.341Z" fill="#000072"/>
<path d="M119.397 388.511C119.603 388.802 119.944 389.204 120.24 389.554C120.536 389.904 120.869 390.274 121.199 390.629C121.855 391.34 122.535 392.039 123.238 392.725C124.645 394.092 126.134 395.402 127.69 396.643L127.703 396.653C127.997 396.887 128.196 397.22 128.264 397.589C128.332 397.959 128.264 398.341 128.072 398.664C127.881 398.987 127.579 399.231 127.222 399.349C126.865 399.467 126.478 399.452 126.131 399.307C124.201 398.497 122.302 397.59 120.432 396.586C119.5 396.082 118.577 395.548 117.664 394.983C117.206 394.705 116.751 394.414 116.295 394.109C115.839 393.805 115.411 393.527 114.886 393.12L114.71 392.983C114.021 392.452 113.571 391.669 113.459 390.806C113.347 389.943 113.583 389.071 114.114 388.382C114.645 387.693 115.428 387.243 116.291 387.131C117.153 387.019 118.025 387.255 118.715 387.786C118.976 387.993 119.206 388.237 119.397 388.511Z" fill="#000072"/>
<path d="M247.468 393.132C246.948 393.54 246.536 393.816 246.072 394.136C245.609 394.455 245.171 394.737 244.715 395.021C243.808 395.592 242.891 396.135 241.964 396.65C240.111 397.678 238.223 398.61 236.299 399.444C235.916 399.61 235.485 399.631 235.088 399.503C234.691 399.374 234.354 399.105 234.141 398.746C233.928 398.386 233.854 397.962 233.931 397.552C234.009 397.141 234.234 396.774 234.564 396.517L234.578 396.506C236.145 395.289 237.641 394.007 239.065 392.661C239.776 391.988 240.465 391.298 241.128 390.598C241.462 390.249 241.785 389.893 242.1 389.538C242.414 389.182 242.745 388.801 242.956 388.518C243.232 388.142 243.584 387.83 243.991 387.601C244.397 387.373 244.847 387.234 245.311 387.194C245.775 387.153 246.243 387.213 246.682 387.368C247.121 387.523 247.523 387.77 247.859 388.092C248.195 388.415 248.458 388.806 248.631 389.238C248.804 389.671 248.882 390.136 248.861 390.601C248.84 391.067 248.719 391.522 248.508 391.937C248.296 392.352 247.998 392.717 247.634 393.008L247.468 393.132Z" fill="#000072"/>
<path d="M215.179 291.674C202.347 291.674 189.02 290.448 175.555 287.944C129.394 281.435 89.4396 261.406 68.6602 234.358C58.9159 221.669 60.0012 210.693 62.6263 203.721C65.7438 195.444 72.2818 189.57 77.7257 187.461C78.4731 182.799 80.7281 170.935 86.1255 156.619C92.4639 139.807 104.522 116.389 125.967 100.306C148.255 83.5886 176.196 77.8285 209.003 83.1879C243.133 88.7616 268.453 103.522 284.259 127.054C299.062 149.091 302.517 174.82 302.811 192.523C303.059 207.51 301.196 219.221 300.317 223.843C304.793 227.589 309.096 235.218 309.416 244.031C309.687 251.476 307.222 262.225 293.947 271.152C273.954 284.595 246.012 291.672 215.179 291.674ZM186.16 87.7112C164.491 87.7112 145.623 93.6446 129.869 105.447C91.1338 134.466 83.8908 189.794 83.8223 190.348C83.7383 191.021 83.4442 191.651 82.9819 192.148C82.5195 192.645 81.9124 192.984 81.2467 193.116C77.7418 193.809 71.4194 198.671 68.6632 205.991C66.6237 211.43 65.8399 220.084 73.7764 230.419C93.5579 256.169 131.967 275.288 176.52 281.552C176.568 281.552 176.614 281.565 176.665 281.575C220.897 289.808 263.393 283.906 290.34 265.79C301.152 258.519 303.171 250.068 302.96 244.26C302.677 236.443 298.23 229.822 295.128 228.049C294.527 227.705 294.053 227.176 293.775 226.542C293.497 225.907 293.431 225.2 293.586 224.525C293.708 223.986 305.575 170.323 278.872 130.61C264.099 108.638 240.24 94.8246 207.958 89.5511C200.409 88.3245 193.143 87.7112 186.16 87.7112Z" fill="#000072"/>
<path d="M191.554 181.441C221.978 186.412 216.276 215.281 187.803 210.052C159.048 204.771 165.754 177.225 191.554 181.441Z" fill="#000072"/>
<path d="M203.251 188.989C203.54 187.269 198.931 185.059 192.956 184.053C186.981 183.048 181.903 183.628 181.613 185.349C181.324 187.07 185.933 189.28 191.908 190.285C197.883 191.291 202.961 190.71 203.251 188.989Z" fill="white"/>
<path d="M323.841 152.501C319.016 167.611 287.185 189.89 275.288 186.47C263.39 183.049 256.367 151.901 278.37 124.391C278.37 124.391 269.579 112.674 260.18 106.619C260.18 106.619 262.802 105.59 266.601 104.211C275.243 101.089 290.022 96.1983 294.259 97.5327C299.067 99.0492 317.568 122.808 322.924 140.25C324.388 144.991 324.875 149.268 323.841 152.501Z" fill="#FAA327"/>
<g opacity="0.6">
<path d="M323.842 152.501C323.52 153.488 323.121 154.448 322.649 155.374C322.492 153.258 321.997 150.934 321.239 148.48C315.883 131.038 297.376 107.28 292.574 105.765C288.628 104.512 275.545 108.678 266.79 111.774C264.73 109.878 262.52 108.152 260.182 106.613C260.182 106.613 262.804 105.584 266.603 104.205C275.245 101.083 290.024 96.1924 294.261 97.5268C299.069 99.0433 317.57 122.802 322.926 140.244C324.39 144.991 324.877 149.268 323.842 152.501Z" fill="white"/>
</g>
<g opacity="0.2">
<path d="M323.842 152.501C319.018 167.611 287.187 189.891 275.29 186.47C263.392 183.05 256.369 151.901 278.372 124.391C278.372 124.391 269.581 112.674 260.182 106.619C260.182 106.619 262.804 105.59 266.603 104.211C270.965 108.327 277.851 112.708 287.237 112.422C287.697 112.405 288.154 112.512 288.559 112.731C288.965 112.95 289.304 113.274 289.542 113.669C289.78 114.063 289.908 114.514 289.912 114.975C289.917 115.436 289.798 115.889 289.568 116.289C283.21 127.312 269.199 155.667 287.187 164.887C300.759 171.832 315.74 150.969 322.926 140.25C324.39 144.991 324.877 149.268 323.842 152.501Z" fill="#000072"/>
</g>
<path d="M278.05 190.048C276.816 190.061 275.586 189.9 274.397 189.57C269.343 188.113 265.111 183.095 262.788 175.79C259.026 163.973 259.911 143.67 274.27 124.416C271.434 120.944 265.015 113.576 258.428 109.328C257.929 109.006 257.528 108.553 257.27 108.018C257.012 107.483 256.906 106.888 256.965 106.297C257.024 105.706 257.244 105.143 257.602 104.669C257.96 104.195 258.442 103.829 258.994 103.612C265.806 100.928 288.546 92.3335 295.231 94.4458C301.012 96.2697 313.948 113.728 320.805 126.964C326.788 138.513 328.843 147.436 326.913 153.477C324 162.599 313.204 172.68 304.068 179.073C300.084 181.868 287.57 190.048 278.05 190.048ZM266.833 107.541C274.49 113.902 280.639 122.04 280.948 122.452C281.378 123.025 281.605 123.724 281.594 124.44C281.583 125.156 281.334 125.848 280.887 126.407C266.61 144.263 265.525 163.118 268.941 173.833C270.574 178.968 273.281 182.531 276.183 183.366C280.562 184.624 290.507 180.687 300.365 173.79C310.759 166.517 318.766 157.775 320.76 151.521C322.47 146.16 318.696 135.205 310.663 122.194C302.955 109.719 295.108 101.376 293.236 100.586C290.688 99.7791 278.484 103.278 266.838 107.541H266.833Z" fill="#000072"/>
<path d="M278.369 127.627C277.767 127.626 277.177 127.457 276.666 127.139C276.155 126.822 275.743 126.367 275.477 125.828C275.21 125.288 275.1 124.685 275.158 124.086C275.216 123.487 275.44 122.916 275.805 122.438C275.988 122.199 280.34 116.523 284.982 112.205C285.613 111.643 286.439 111.351 287.283 111.391C288.127 111.431 288.922 111.8 289.497 112.419C290.072 113.038 290.381 113.858 290.359 114.702C290.337 115.547 289.984 116.349 289.378 116.937C285.138 120.87 280.971 126.304 280.928 126.359C280.628 126.753 280.24 127.072 279.796 127.292C279.353 127.512 278.864 127.626 278.369 127.627Z" fill="#000072"/>
<path d="M137.246 96.3499C146.219 130.408 127.179 156.042 114.913 154.354C102.647 152.666 82.5724 119.403 84.2899 103.634C84.4706 101.99 85.0781 100.273 86.0381 98.503C94.2149 83.2885 127.906 64.7146 133.607 65.3513C138.123 65.8553 150.044 76.7548 156.601 83.0568C159.295 85.6513 161.086 87.4679 161.086 87.4679C150.03 89.2 137.246 96.3499 137.246 96.3499Z" fill="#FAA327"/>
<g opacity="0.6">
<path d="M161.079 87.468C159.022 87.8062 156.987 88.2748 154.989 88.8708C148.244 82.4858 137.771 73.161 133.6 72.7007C127.899 72.0626 94.2078 90.6379 86.031 105.851C85.3602 107.059 84.8532 108.351 84.5232 109.692C84.1852 107.494 84.0949 105.453 84.2901 103.638C84.4708 101.995 85.0783 100.277 86.0383 98.5074C94.2151 83.2929 127.906 64.719 133.608 65.3556C138.124 65.8597 150.044 76.7593 156.601 83.0612C159.288 85.6514 161.079 87.468 161.079 87.468Z" fill="white"/>
</g>
<g opacity="0.2">
<path d="M137.246 96.3498C146.219 130.408 127.179 156.042 114.913 154.354C102.647 152.666 82.5724 119.403 84.2899 103.634C84.4706 101.99 85.0781 100.273 86.0381 98.5029C88.7535 115.9 94.8078 135.914 108.191 131.121C124.653 125.219 128.105 98.7681 128.745 84.4786C128.934 80.2685 133.115 77.4861 137.104 78.8424C143.898 81.1528 151.182 82.394 156.601 83.0568C159.295 85.6513 161.086 87.4679 161.086 87.4679C150.03 89.2 137.246 96.3498 137.246 96.3498Z" fill="#000072"/>
</g>
<path d="M116.072 157.659C115.535 157.66 115 157.624 114.469 157.55C104.519 156.179 94.4428 140.663 91.5978 135.94C85.8348 126.396 80.0456 112.804 81.0784 103.284C81.7646 96.9719 87.2581 89.6458 97.4088 81.5097C109.04 72.1864 127.921 61.4748 133.962 62.1347C140.924 62.9112 158.238 79.9801 163.379 85.1925C163.795 85.6154 164.088 86.1451 164.223 86.7233C164.358 87.3015 164.331 87.9058 164.146 88.4697C163.96 89.0337 163.622 89.5356 163.17 89.9201C162.717 90.3047 162.168 90.5571 161.581 90.6495C153.837 91.8645 144.984 96.0017 140.984 98.0266C146.316 121.447 138.899 140.368 130.673 149.649C126.101 154.812 120.867 157.658 116.072 157.659ZM133.222 68.5576C131.183 68.5576 120.665 73.0037 108.603 81.2577C95.9928 89.892 88.1001 98.3864 87.4941 103.983C86.7846 110.511 90.5635 121.746 97.1204 132.606C103.339 142.905 110.836 150.534 115.352 151.156C118.34 151.569 122.261 149.408 125.841 145.375C133.301 136.957 139.947 119.282 134.125 97.1729C133.943 96.4804 133.995 95.7469 134.275 95.0876C134.555 94.4283 135.046 93.8808 135.671 93.531C136.121 93.2804 145.038 88.3303 154.609 85.6149C145.683 76.9996 135.935 68.8621 133.237 68.5591L133.222 68.5576Z" fill="#000072"/>
<path d="M137.244 99.5765C136.519 99.5756 135.816 99.3308 135.247 98.8816C134.678 98.4324 134.277 97.8049 134.107 97.1C134.091 97.0345 132.48 90.38 130.2 85.0657C130.033 84.6761 129.944 84.2573 129.939 83.8334C129.933 83.4094 130.011 82.9885 130.169 82.5948C130.326 82.201 130.559 81.842 130.855 81.5384C131.151 81.2347 131.504 80.9923 131.893 80.825C132.283 80.6577 132.702 80.5688 133.125 80.5633C133.549 80.5578 133.97 80.6359 134.364 80.7931C134.758 80.9503 135.117 81.1835 135.421 81.4794C135.724 81.7754 135.967 82.1282 136.134 82.5178C138.637 88.3448 140.316 95.3009 140.386 95.5937C140.586 96.4263 140.446 97.304 139.999 98.0339C139.551 98.7638 138.832 99.2862 138 99.4862C137.752 99.5454 137.499 99.5758 137.244 99.5765Z" fill="#000072"/>
<path d="M125.912 220.446C96.8303 220.446 73.1768 196.787 73.1768 167.711C73.1768 138.636 96.8362 114.976 125.912 114.976C154.988 114.976 178.647 138.636 178.647 167.711C178.647 196.787 154.993 220.446 125.912 220.446ZM125.912 121.422C100.391 121.422 79.6288 142.184 79.6288 167.705C79.6288 193.227 100.391 213.99 125.912 213.99C151.433 213.99 172.196 193.227 172.196 167.705C172.196 142.184 151.433 121.422 125.912 121.422Z" fill="#000072"/>
<path d="M260.623 244.843C231.541 244.843 207.888 221.182 207.888 192.1C207.888 163.019 231.547 139.365 260.623 139.365C289.698 139.365 313.358 163.025 313.358 192.1C313.358 221.176 289.704 244.843 260.623 244.843ZM260.623 145.817C235.102 145.817 214.34 166.579 214.34 192.1C214.34 217.622 235.102 238.385 260.623 238.385C286.144 238.385 306.907 217.622 306.907 192.1C306.907 166.579 286.144 145.817 260.623 145.817Z" fill="#000072"/>
<path d="M186.469 221.682C186.002 221.682 185.54 221.58 185.116 221.385C184.691 221.189 184.315 220.904 184.011 220.549C183.708 220.193 183.485 219.776 183.358 219.327C183.232 218.877 183.204 218.405 183.277 217.944L184.616 209.544C184.751 208.698 185.217 207.941 185.91 207.439C186.604 206.937 187.469 206.73 188.314 206.866C189.16 207.001 189.917 207.466 190.419 208.16C190.921 208.853 191.128 209.718 190.992 210.564L189.654 218.963C189.532 219.721 189.145 220.41 188.561 220.908C187.978 221.406 187.236 221.68 186.469 221.682Z" fill="#000072"/>
<path d="M159.385 215.661L159.509 216.025L159.681 216.462C159.803 216.753 159.943 217.045 160.095 217.336C160.397 217.911 160.747 218.46 161.142 218.976C161.92 219.998 162.862 220.884 163.929 221.598C165 222.301 166.168 222.841 167.397 223.201C168.63 223.558 169.902 223.763 171.185 223.813C173.662 223.861 176.021 223.121 178.132 221.743C179.204 221.044 180.195 220.229 181.088 219.313C181.543 218.849 181.973 218.363 182.379 217.856C182.581 217.607 182.774 217.351 182.962 217.097L183.222 216.72C183.289 216.626 183.351 216.529 183.407 216.428L190.108 217.954C190.097 217.906 190.108 218.012 190.108 218.057L190.136 218.254C190.157 218.391 190.183 218.545 190.212 218.691C190.269 218.982 190.342 219.288 190.422 219.588C190.586 220.197 190.786 220.796 191.022 221.381C191.49 222.555 192.105 223.665 192.852 224.685C194.371 226.75 196.424 228.361 198.789 229.347C201.245 230.394 203.949 230.977 206.532 230.727C207.834 230.608 209.108 230.276 210.302 229.745C210.904 229.479 211.481 229.162 212.028 228.798C212.301 228.616 212.567 228.423 212.817 228.215L213.178 227.908L213.459 227.647L213.654 227.465C213.991 227.15 214.435 226.973 214.896 226.969C215.358 226.966 215.804 227.137 216.145 227.447C216.487 227.758 216.699 228.185 216.739 228.645C216.78 229.105 216.646 229.563 216.364 229.928C216.155 230.201 216.036 230.339 215.871 230.527C215.707 230.715 215.563 230.864 215.404 231.024C215.088 231.344 214.758 231.643 214.419 231.927C213.74 232.497 213.013 233.008 212.246 233.454C210.701 234.351 209.022 234.99 207.272 235.347C205.531 235.703 203.748 235.808 201.977 235.661C200.23 235.53 198.506 235.192 196.839 234.654C195.127 234.102 193.492 233.334 191.975 232.368C190.439 231.374 189.045 230.178 187.829 228.811C186.617 227.446 185.582 225.934 184.748 224.311C184.329 223.5 183.959 222.666 183.639 221.811C183.479 221.374 183.33 220.937 183.202 220.491C183.133 220.266 183.069 220.037 183.01 219.796L182.919 219.428C182.889 219.282 182.867 219.199 182.827 218.962L189.529 220.487C189.316 220.787 189.204 220.917 189.045 221.118L188.608 221.644C188.317 221.982 188.011 222.311 187.702 222.627C187.087 223.261 186.444 223.862 185.773 224.429C184.417 225.582 182.938 226.58 181.362 227.407C179.745 228.254 178.019 228.873 176.233 229.247C174.428 229.608 172.578 229.687 170.749 229.483C168.985 229.262 167.258 228.802 165.617 228.118C163.97 227.437 162.433 226.515 161.058 225.38C159.691 224.237 158.524 222.876 157.602 221.352C157.147 220.6 156.757 219.811 156.437 218.992C156.273 218.584 156.129 218.169 156 217.742C155.936 217.53 155.879 217.305 155.823 217.091C155.768 216.877 155.727 216.675 155.678 216.344C155.59 215.873 155.684 215.387 155.942 214.984C156.2 214.58 156.602 214.29 157.066 214.173C157.53 214.055 158.021 214.119 158.44 214.351C158.859 214.583 159.173 214.966 159.32 215.422L159.385 215.661Z" fill="#000072"/>
<path d="M175.198 236.035C175.272 236.056 175.44 236.165 175.581 236.232C175.722 236.299 175.872 236.392 176.018 236.468C176.309 236.627 176.628 236.777 176.937 236.919C177.56 237.207 178.196 237.464 178.844 237.687C180.136 238.131 181.464 238.458 182.814 238.666C183.499 238.726 184.172 238.869 184.869 238.864C185.215 238.882 185.56 238.93 185.91 238.93C186.259 238.93 186.61 238.921 186.963 238.93C187.318 238.944 187.674 238.936 188.028 238.907L189.104 238.874C189.833 238.839 190.561 238.749 191.311 238.754H191.543C191.986 238.748 192.416 238.898 192.76 239.178C193.103 239.457 193.338 239.848 193.424 240.282C193.509 240.717 193.439 241.167 193.227 241.556C193.015 241.944 192.673 242.246 192.261 242.409C191.47 242.739 190.662 243.025 189.84 243.267C188.996 243.44 188.159 243.683 187.285 243.747C185.55 243.983 183.761 243.893 182.001 243.625C180.233 243.308 178.526 242.718 176.939 241.877C176.144 241.455 175.39 240.961 174.687 240.4C174.334 240.112 173.997 239.808 173.676 239.486C173.515 239.325 173.355 239.16 173.199 238.979C173.043 238.799 172.908 238.636 172.711 238.376C172.502 238.112 172.382 237.788 172.366 237.452C172.35 237.115 172.441 236.782 172.624 236.499C172.807 236.217 173.075 235.998 173.389 235.875C173.702 235.752 174.047 235.731 174.373 235.814L175.198 236.035Z" fill="#0B005B"/>
<path d="M82.6912 273.32C79.0085 295.3 68.7062 296.852 62.5339 295.623C59.5257 295.03 56.3747 295.435 53.7569 297.033C43.4866 303.312 31.7465 296.312 23.1341 279.843C22.0658 277.81 21.0461 275.634 20.0749 273.317C15.6419 262.649 15.8663 253.82 19.7529 247.095C24.3811 239.061 34.2245 234.012 47.5627 232.392C56.5349 231.304 64.5544 231.875 70.7501 234.868C76.3616 237.577 80.4799 242.273 82.4829 249.505C84.1699 255.547 84.3578 263.379 82.6912 273.32Z" fill="#F43861"/>
<g opacity="0.6">
<path d="M82.6918 273.32C82.01 277.399 81.1024 280.761 80.0375 283.545C80.2094 282.704 80.3741 281.833 80.5241 280.923C82.1892 270.983 82.0027 263.15 80.3216 257.104C78.3186 249.873 74.2032 245.176 68.5888 242.468C67.1326 241.766 65.6132 241.204 64.051 240.789C63.7276 242.926 60.2167 244.614 55.9411 244.614C51.447 244.614 47.8007 242.754 47.8007 240.458C47.8013 240.21 47.8446 239.963 47.9289 239.73C47.0956 239.804 46.2565 239.887 45.3999 239.992C32.0617 241.612 22.2198 246.661 17.5916 254.695C17.3658 255.093 17.1546 255.49 16.9463 255.895C17.2558 252.795 18.2142 249.794 19.7593 247.088C24.3875 239.054 34.2309 234.004 47.5691 232.385C56.5413 231.296 64.5608 231.867 70.7565 234.861C76.368 237.569 80.4862 242.266 82.4893 249.497C84.1704 255.547 84.3583 263.379 82.6918 273.32Z" fill="white"/>
</g>
<path d="M46.0047 302.537C44.0894 302.53 42.1872 302.221 40.3685 301.62C31.405 298.707 23.1407 289.092 17.098 274.559C12.4436 263.36 12.416 253.269 17.0194 245.376C22.1632 236.557 32.5922 230.954 47.1745 229.185C61.7684 227.414 72.5762 230.074 79.2861 237.096C86.4854 244.629 88.7012 256.995 85.8722 273.854C84.0133 284.926 80.2563 292.489 74.7031 296.324C71.0145 298.87 66.5889 299.725 61.901 298.793C59.5454 298.325 57.2495 298.679 55.4358 299.788C52.4524 301.615 49.2591 302.537 46.0047 302.537ZM47.9583 235.595C35.4533 237.115 26.6894 241.622 22.5973 248.629C19.0006 254.797 19.1564 262.687 23.0606 272.083C28.2904 284.665 35.3266 293.193 42.3657 295.482C45.7163 296.57 48.9853 296.166 52.0736 294.28C55.2785 292.32 59.2118 291.675 63.164 292.46C66.1446 293.052 68.7915 292.564 71.0393 291.011C75.044 288.243 77.9735 281.945 79.5104 272.788C81.9869 258.045 80.3393 247.539 74.6244 241.558C69.3975 236.089 60.4282 234.085 47.9655 235.597L47.9583 235.595Z" fill="#0B005B"/>
<path d="M49.5771 233.04C49.5771 233.04 32.6975 219.215 15.8193 235.935C15.8208 235.935 30.7702 247.829 49.5771 233.04Z" fill="#6FDD58"/>
<path d="M30.3909 243.638C20.4965 243.638 13.9148 238.539 13.81 238.461C13.4532 238.177 13.1606 237.82 12.9514 237.415C12.7423 237.01 12.6213 236.565 12.5966 236.109C12.5718 235.654 12.6437 235.198 12.8077 234.773C12.9716 234.347 13.2239 233.961 13.5477 233.64C32.2789 215.088 51.4325 230.386 51.6248 230.543C51.9988 230.849 52.2993 231.236 52.504 231.674C52.7087 232.112 52.8124 232.59 52.8075 233.073C52.8026 233.557 52.6892 234.033 52.4757 234.467C52.2622 234.9 51.9539 235.281 51.5738 235.579C43.7568 241.725 36.4525 243.638 30.3909 243.638ZM21.3589 235.4C25.754 237.31 33.8755 239.109 43.6869 233.202C38.9422 230.912 30.3938 228.668 21.3619 235.4H21.3589Z" fill="#0B005B"/>
<path d="M48.0658 232.195L47.8255 231.404C47.7366 231.122 47.639 230.836 47.5341 230.552C47.3316 229.984 47.0971 229.419 46.8596 228.865C46.3764 227.764 45.8206 226.697 45.196 225.67C44.0084 223.697 42.5224 221.919 40.7907 220.4C39.9624 219.698 39.0787 219.065 38.1482 218.506C37.2327 217.98 36.2758 217.53 35.2871 217.16C33.3027 216.463 31.2227 216.077 29.1205 216.015C28.312 215.984 27.5189 215.784 26.7929 215.426C26.067 215.069 25.4245 214.563 24.9072 213.941C24.3899 213.318 24.0095 212.594 23.7908 211.815C23.572 211.036 23.5198 210.22 23.6375 209.419C23.7552 208.619 24.0402 207.852 24.474 207.169C24.9077 206.486 25.4805 205.902 26.155 205.455C26.8295 205.008 27.5905 204.708 28.3886 204.575C29.1867 204.441 30.004 204.478 30.7871 204.681L31.0158 204.742C34.1375 205.554 37.1128 206.849 39.8336 208.581C42.5099 210.31 44.8509 212.51 46.7431 215.074C48.531 217.513 49.9337 220.212 50.9022 223.077C51.3736 224.459 51.7522 225.87 52.0355 227.302C52.1812 228.011 52.2963 228.724 52.3866 229.443C52.4347 229.803 52.474 230.163 52.5061 230.53C52.5381 230.897 52.5629 231.232 52.5847 231.695C52.61 232.248 52.4327 232.791 52.0861 233.223C51.7395 233.654 51.2475 233.944 50.7022 234.038C50.157 234.133 49.596 234.025 49.1246 233.735C48.6531 233.446 48.3036 232.994 48.1416 232.465L48.0658 232.195Z" fill="#0B005B"/>
<path d="M337.652 206.53C336.797 206.529 335.978 206.191 335.373 205.588C334.768 204.985 334.426 204.167 334.422 203.313L333.998 97.3128C333.996 96.8887 334.078 96.4685 334.239 96.0761C334.4 95.6836 334.636 95.3267 334.935 95.0257C335.234 94.7247 335.589 94.4855 335.98 94.3218C336.371 94.1581 336.791 94.073 337.215 94.0715H337.226C338.08 94.0711 338.9 94.4092 339.505 95.0118C340.111 95.6144 340.452 96.4324 340.456 97.2866L340.88 203.288C340.882 203.712 340.8 204.133 340.639 204.525C340.479 204.917 340.242 205.274 339.944 205.575C339.645 205.876 339.29 206.115 338.899 206.279C338.508 206.443 338.089 206.528 337.665 206.53H337.652Z" fill="#000072"/>
<path d="M333.607 205.528L329.681 212.431C329.3 213.101 329.102 213.859 329.106 214.629C329.109 215.399 329.315 216.155 329.702 216.821C330.09 217.487 330.645 218.04 331.313 218.424C331.981 218.808 332.738 219.01 333.508 219.01H340.946C341.699 219.01 342.439 218.817 343.096 218.449C343.753 218.081 344.305 217.551 344.698 216.909C345.092 216.267 345.314 215.535 345.344 214.783C345.374 214.03 345.211 213.283 344.869 212.612L341.359 205.708C339.765 202.582 335.341 202.479 333.607 205.528Z" fill="#FFF761"/>
<path d="M340.947 222.238H333.509C332.173 222.238 330.861 221.888 329.704 221.222C328.546 220.556 327.584 219.598 326.912 218.444C326.241 217.29 325.884 215.979 325.878 214.644C325.872 213.309 326.216 211.995 326.876 210.835L330.802 203.931C331.483 202.733 332.476 201.742 333.675 201.063C334.874 200.384 336.235 200.043 337.613 200.075C338.99 200.107 340.334 200.511 341.5 201.246C342.666 201.98 343.612 203.016 344.236 204.244L347.749 211.149C348.34 212.312 348.623 213.608 348.571 214.912C348.519 216.216 348.134 217.485 347.451 218.597C346.769 219.71 345.813 220.629 344.674 221.266C343.535 221.903 342.252 222.238 340.947 222.238ZM336.415 207.123L332.489 214.028C332.389 214.206 332.337 214.408 332.338 214.612C332.34 214.817 332.395 215.017 332.498 215.194C332.601 215.371 332.748 215.518 332.926 215.62C333.103 215.722 333.304 215.776 333.509 215.776H340.947C341.148 215.776 341.345 215.725 341.521 215.627C341.696 215.529 341.843 215.387 341.948 215.216C342.053 215.045 342.112 214.85 342.12 214.649C342.128 214.448 342.084 214.249 341.993 214.07L338.481 207.165C338.385 206.976 338.239 206.816 338.06 206.703C337.881 206.59 337.674 206.528 337.462 206.523C337.25 206.518 337.041 206.571 336.857 206.675C336.672 206.78 336.52 206.933 336.415 207.117V207.123Z" fill="#000072"/>
<g opacity="0.2">
<path d="M82.6922 273.32C79.0095 295.3 68.7072 296.852 62.5349 295.623C59.5267 295.03 56.3757 295.435 53.7578 297.033C43.4876 303.312 31.7475 296.312 23.1351 279.843C22.0668 277.81 21.047 275.634 20.0759 273.317C15.6429 262.649 15.8673 253.819 19.7539 247.095C22.9676 258.081 35.6939 266.568 50.3213 267.606C68.783 268.917 78.268 263 82.4839 249.503C84.1708 255.547 84.3588 263.379 82.6922 273.32Z" fill="#000072"/>
</g>
<g opacity="0.2">
<path d="M237.621 305.061C238.154 306.33 282.029 392.383 181.892 392.383C85.9088 392.383 125.191 306.021 125.661 304.942C125.023 305.511 94.8199 332.329 71.2187 331.378C47.3641 330.41 30.0723 301.951 30.0723 301.951C23.7921 298.13 18.3569 291.858 14.0813 285.686C11.9733 286.106 9.85665 287.104 7.71957 288.942C-5.77741 300.518 19.0926 306.301 25.4834 313.532C31.8743 320.764 55.3268 370.681 107.907 335.238C107.907 335.238 97.5163 360.28 110.307 383.02C110.316 383.029 110.324 383.039 110.33 383.049C110.505 383.3 111.852 385.188 114.437 387.928L114.291 388.256C115.357 389.693 116.501 391.07 117.719 392.381V417.438H132.16V409.426C132.16 406.145 135.591 403.963 138.539 405.398C146.225 409.137 155.557 412.288 166.605 413.811V432.332C166.609 434.209 165.977 436.031 164.811 437.502C163.645 438.973 162.015 440.005 160.187 440.429C152.716 442.136 142.987 443.414 130.595 443.414C107.363 443.414 97.9781 436.242 94.2036 430.338C93.024 432.44 92.4115 434.813 92.4264 437.224C92.4264 452.268 129.755 462.781 173.467 447.986L174.02 447.798C175.051 447.446 176.086 447.078 177.123 446.696C177.373 446.603 177.622 446.51 177.87 446.416C178.94 446.017 180.009 445.607 181.084 445.176C182.217 445.631 183.348 446.063 184.477 446.487L184.914 446.651C186 447.053 187.082 447.438 188.162 447.807L188.696 447.988C189.758 448.348 190.82 448.697 191.874 449.028L192.1 449.098C193.101 449.41 194.097 449.704 195.091 449.989C195.236 450.032 195.382 450.081 195.538 450.123C236.229 461.671 269.739 451.486 269.739 437.233C269.756 434.802 269.129 432.411 267.924 430.301C264.601 436.175 256.281 443.422 235.438 443.422C221.751 443.422 210.476 441.66 201.808 439.509C200.015 439.057 198.424 438.019 197.289 436.559C196.154 435.099 195.54 433.301 195.544 431.452V413.882C206.98 412.397 216.489 409.263 224.194 405.578C224.874 405.252 225.626 405.103 226.379 405.145C227.132 405.188 227.862 405.422 228.501 405.823C229.14 406.225 229.666 406.783 230.03 407.443C230.395 408.104 230.586 408.846 230.585 409.601V417.447H245.026V392.39C246.243 391.079 247.388 389.701 248.455 388.265L248.31 387.931C249.621 386.464 250.368 385.455 250.576 385.163L250.636 385.082C256.676 375.486 258.357 365.337 258.236 356.71C258.236 356.71 268.176 353.776 274.17 345.299C276.6 341.871 278.379 337.527 278.589 332.103C266.927 346.637 238.267 305.978 237.621 305.061Z" fill="#000072"/>
</g>
</svg>
