<svg width="428" height="428" viewBox="0 0 428 428" fill="none" xmlns="http://www.w3.org/2000/svg">
<g opacity="0.2">
<path d="M239.244 427.82C304.711 427.82 357.782 420.925 357.782 412.419C357.782 403.913 304.711 397.017 239.244 397.017C173.777 397.017 120.706 403.913 120.706 412.419C120.706 420.925 173.777 427.82 239.244 427.82Z" fill="#000072"/>
</g>
<path d="M23.3006 139.589C25.9861 135.321 31.7642 134.661 36.0399 137.345L36.7047 137.763L37.122 137.099C39.8075 132.83 45.3015 130.924 49.5684 133.608C50.5839 134.246 51.4636 135.078 52.1574 136.056C52.8512 137.035 53.3454 138.14 53.6118 139.31C53.8782 140.479 53.9115 141.69 53.7099 142.872C53.5084 144.054 53.0758 145.185 52.4369 146.201L52.0196 146.865L43.578 160.286C43.4098 160.553 43.1904 160.785 42.9325 160.968C42.6746 161.151 42.3831 161.281 42.0748 161.351C41.7665 161.422 41.4474 161.43 41.1358 161.377C40.8241 161.324 40.526 161.21 40.2585 161.041L26.8383 152.601L26.175 152.182C25.1592 151.544 24.279 150.712 23.5848 149.734C22.8905 148.756 22.3958 147.651 22.1289 146.481C21.8619 145.312 21.828 144.101 22.0291 142.919C22.2301 141.736 22.6622 140.605 23.3006 139.589Z" fill="#FF0068"/>
<path d="M0.88367 112.739C2.34795 110.418 5.48444 110.059 7.80532 111.519L8.16701 111.746L8.39397 111.384C9.85825 109.064 12.841 108.027 15.1619 109.481C15.7138 109.828 16.192 110.28 16.5691 110.812C16.9462 111.344 17.2148 111.945 17.3596 112.581C17.5044 113.216 17.5226 113.874 17.4131 114.517C17.3036 115.16 17.0685 115.775 16.7213 116.326L16.4944 116.687L11.9053 123.983C11.8138 124.129 11.6945 124.255 11.5543 124.354C11.414 124.454 11.2555 124.525 11.0878 124.563C10.9202 124.601 10.7466 124.606 10.5771 124.577C10.4076 124.548 10.2454 124.486 10.0999 124.395L2.80334 119.806L2.44313 119.579C1.33006 118.878 0.540637 117.764 0.248244 116.481C-0.0441496 115.199 0.184389 113.853 0.88367 112.739Z" fill="#FF0068"/>
<path d="M23.6054 77.1538C28.6103 72.4681 36.4339 73.6043 41.1138 78.618L41.8459 79.3971L42.6249 78.6649C47.6313 73.9792 55.5106 73.3803 60.1963 78.3867C62.4442 80.7901 63.6453 83.9879 63.5355 87.2768C63.4256 90.5658 62.0138 93.6764 59.6106 95.9244L58.8316 96.6565L43.0935 111.373C42.7797 111.666 42.4112 111.895 42.0089 112.046C41.6067 112.197 41.1787 112.267 40.7492 112.253C40.3198 112.238 39.8975 112.14 39.5063 111.962C39.1151 111.784 38.7627 111.531 38.4693 111.217L23.7445 95.4719L23.0123 94.6929C21.8995 93.5024 21.0322 92.1043 20.4597 90.5786C19.8873 89.0528 19.621 87.4292 19.676 85.8005C19.7311 84.1718 20.1065 82.5699 20.7807 81.0863C21.4549 79.6027 22.4147 78.2664 23.6054 77.1538Z" fill="#FF0068"/>
<path d="M226.216 312.128C224.581 319.093 223.316 325.915 222.305 332.516C221.914 335.128 221.557 337.704 221.234 340.243C217.089 372.715 218.549 398.531 211.826 405.85C205.345 412.906 177.741 412.932 170.457 406.289C169.653 405.557 168.81 402.653 167.98 398.328C165.744 386.712 163.601 364.845 162.603 347.33C162.556 346.533 162.516 345.75 162.475 344.974C162.288 341.364 162.162 337.983 162.087 334.964L198.015 322.176L226.216 312.128Z" fill="#C2C6D2"/>
<g opacity="0.3">
<path d="M226.216 312.128C224.581 319.093 223.316 325.915 222.305 332.516C221.914 335.128 221.557 337.704 221.234 340.243C217.089 372.715 218.549 398.531 211.826 405.85C205.345 412.906 177.741 412.932 170.457 406.289C169.653 405.557 168.81 402.653 167.98 398.328C180.955 400.47 208.773 402.767 210.34 383.392C212.765 353.445 178.913 356.764 162.475 344.968C162.288 341.358 162.162 337.977 162.087 334.958L198.015 322.17L226.216 312.128Z" fill="#000072"/>
</g>
<path d="M179.641 406.21C179.645 407.502 179.373 408.78 178.844 409.959C175.242 409.136 172.242 407.909 170.461 406.283C169.605 405.5 168.704 402.239 167.811 397.405C168.669 397.146 169.56 397.015 170.456 397.017C172.893 397.019 175.229 397.988 176.952 399.712C178.674 401.436 179.642 403.773 179.641 406.21Z" fill="white"/>
<path d="M198.016 408.178C198.017 409.086 197.881 409.989 197.614 410.856C191.757 411.492 185.228 411.258 179.859 410.174C179.71 409.519 179.636 408.85 179.637 408.178C179.622 406.962 179.848 405.754 180.303 404.626C180.758 403.498 181.433 402.471 182.287 401.605C183.142 400.739 184.16 400.052 185.283 399.583C186.405 399.114 187.61 398.872 188.827 398.872C190.043 398.872 191.248 399.114 192.37 399.583C193.493 400.052 194.511 400.739 195.366 401.605C196.22 402.471 196.895 403.498 197.35 404.626C197.805 405.754 198.031 406.962 198.016 408.178Z" fill="white"/>
<path d="M214.064 402.066C213.441 403.626 212.705 404.891 211.828 405.849C209.47 408.413 204.329 410.047 198.39 410.77C198.139 409.929 198.013 409.056 198.015 408.178C198.014 406.315 198.579 404.496 199.636 402.961C200.692 401.427 202.19 400.25 203.931 399.587C205.672 398.924 207.574 398.806 209.384 399.249C211.193 399.692 212.825 400.674 214.064 402.066Z" fill="white"/>
<path d="M179.813 411.915L178.464 411.606C174.319 410.66 171.241 409.288 169.319 407.531C168.466 406.752 167.491 405.024 166.145 397.711L165.872 396.227L167.317 395.787C168.333 395.481 169.39 395.326 170.452 395.328C173.336 395.332 176.101 396.48 178.14 398.52C180.179 400.56 181.325 403.326 181.327 406.21C181.332 407.742 181.01 409.256 180.381 410.653L179.813 411.915ZM169.784 398.736C170.849 404.03 171.541 404.967 171.625 405.062C172.856 406.185 174.962 407.177 177.748 407.942C178.007 406.841 178.014 405.695 177.768 404.591C177.522 403.486 177.03 402.452 176.329 401.564C175.628 400.676 174.735 399.958 173.717 399.463C172.699 398.969 171.583 398.71 170.452 398.707C170.226 398.707 170.004 398.716 169.784 398.736Z" fill="#000072"/>
<path d="M190.973 412.899C186.984 412.899 183.022 412.536 179.524 411.83L178.455 411.615L178.212 410.55C178.035 409.772 177.946 408.976 177.948 408.178C177.931 406.739 178.2 405.311 178.74 403.976C179.279 402.642 180.077 401.427 181.089 400.404C182.101 399.38 183.306 398.567 184.634 398.013C185.962 397.458 187.388 397.172 188.827 397.172C190.266 397.172 191.691 397.458 193.019 398.013C194.348 398.567 195.553 399.38 196.564 400.404C197.576 401.427 198.375 402.642 198.914 403.976C199.453 405.311 199.722 406.739 199.706 408.178C199.707 409.255 199.546 410.326 199.228 411.356L198.9 412.416L197.796 412.536C195.53 412.78 193.252 412.901 190.973 412.899ZM181.348 408.733C185.928 409.531 191.233 409.732 196.243 409.293C196.299 408.924 196.326 408.551 196.326 408.178C196.34 407.185 196.156 406.198 195.786 405.276C195.415 404.354 194.865 403.515 194.167 402.807C193.469 402.1 192.638 401.538 191.721 401.154C190.804 400.771 189.821 400.573 188.827 400.573C187.833 400.573 186.849 400.771 185.933 401.154C185.016 401.538 184.184 402.1 183.487 402.807C182.789 403.515 182.239 404.354 181.868 405.276C181.497 406.198 181.314 407.185 181.328 408.178C181.328 408.364 181.335 408.55 181.348 408.733Z" fill="#000072"/>
<path d="M197.183 412.619L196.773 411.256C196.477 410.258 196.33 409.222 196.334 408.181C196.332 405.975 197.001 403.821 198.252 402.005C199.503 400.188 201.277 398.795 203.338 398.01C205.399 397.225 207.651 397.085 209.793 397.609C211.936 398.134 213.868 399.297 215.334 400.945L216.028 401.725L215.642 402.694C214.926 404.488 214.088 405.894 213.082 406.994C209.922 410.43 203.465 411.858 198.603 412.45L197.183 412.619ZM207.209 400.675C205.22 400.678 203.313 401.469 201.906 402.875C200.499 404.282 199.708 406.189 199.706 408.178C199.706 408.414 199.716 408.647 199.738 408.878C204.951 408.077 208.859 406.582 210.584 404.705C211.177 404.029 211.671 403.271 212.048 402.454C210.696 401.307 208.982 400.677 207.209 400.675Z" fill="#000072"/>
<path d="M190.815 413.946C181.816 413.946 172.828 412.073 168.653 408.26C167.69 407.382 165.432 405.323 162.503 378.456C160.893 363.775 159.686 346.725 159.415 335.02C159.407 334.668 159.468 334.319 159.595 333.991C159.722 333.663 159.912 333.363 160.155 333.109C160.398 332.855 160.689 332.651 161.01 332.508C161.332 332.366 161.678 332.289 162.03 332.281C162.381 332.273 162.731 332.334 163.059 332.461C163.387 332.588 163.686 332.778 163.941 333.021C164.195 333.264 164.399 333.554 164.541 333.876C164.683 334.197 164.761 334.544 164.769 334.895C165.354 360.173 169.747 400.177 172.374 404.397C178.817 410.025 204.563 409.815 209.86 404.039C213.598 399.965 214.519 387.252 215.686 371.155C216.893 354.493 218.397 333.756 223.612 311.518C223.688 311.171 223.832 310.843 224.036 310.552C224.24 310.262 224.5 310.014 224.8 309.825C225.101 309.635 225.436 309.508 225.786 309.449C226.136 309.39 226.494 309.402 226.84 309.483C227.186 309.564 227.512 309.713 227.799 309.921C228.087 310.129 228.33 310.393 228.515 310.696C228.7 310.999 228.823 311.336 228.876 311.687C228.93 312.038 228.913 312.396 228.827 312.741C223.702 334.559 222.221 355.069 221.028 371.543C219.689 390.012 218.805 402.214 213.806 407.66C209.978 411.826 200.39 413.946 190.815 413.946Z" fill="#6B184E"/>
<path d="M190.98 413.886C186.925 413.886 182.891 413.518 179.328 412.799C178.98 412.73 178.618 412.653 178.265 412.574C173.93 411.584 170.702 410.134 168.652 408.26C167.74 407.427 166.642 405.869 165.173 397.89C162.353 382.515 159.805 352.013 159.411 335.021C159.397 334.312 159.664 333.626 160.154 333.114C160.644 332.602 161.318 332.305 162.027 332.288C162.735 332.272 163.422 332.537 163.936 333.026C164.449 333.515 164.748 334.188 164.766 334.897C165.156 351.689 167.665 381.783 170.44 396.922C171.478 402.558 172.197 404.082 172.373 404.403C173.723 405.575 176.221 406.614 179.437 407.348C179.73 407.412 180.053 407.482 180.375 407.545C185.399 408.56 191.731 408.803 197.324 408.194C197.578 408.168 197.812 408.144 198.04 408.114C203.738 407.419 208.144 405.897 209.856 404.036C210.488 403.347 211.068 402.349 211.576 401.073C213.932 395.241 214.704 384.606 215.676 371.14C216.886 354.48 218.39 333.747 223.605 311.516C223.681 311.17 223.825 310.841 224.029 310.55C224.233 310.26 224.493 310.013 224.793 309.823C225.094 309.634 225.429 309.506 225.779 309.447C226.129 309.389 226.487 309.4 226.833 309.481C227.179 309.562 227.505 309.711 227.792 309.919C228.08 310.128 228.323 310.391 228.508 310.694C228.693 310.997 228.816 311.334 228.869 311.685C228.923 312.036 228.906 312.395 228.82 312.739C223.695 334.557 222.214 355.057 221.019 371.528C220.008 385.461 219.21 396.468 216.543 403.069C215.786 404.964 214.887 406.468 213.799 407.657C210.431 411.317 203.736 412.815 198.717 413.427C198.464 413.461 198.175 413.492 197.887 413.521C195.593 413.767 193.287 413.888 190.98 413.886Z" fill="#000072"/>
<path d="M296.296 366.906C296.296 366.906 319.94 363.124 318.424 378.66C316.909 394.196 323.559 398.963 323.559 398.963C323.559 398.963 295.198 400.168 290.32 386.224C286.843 376.267 294.357 369.991 294.357 369.991" fill="#666566"/>
<g opacity="0.35">
<path d="M320.933 398.974C317.747 396.681 312.189 391.001 313.282 379.792C314.369 368.7 302.621 367.452 295.816 367.648L296.294 366.891C296.294 366.891 319.938 363.105 318.422 378.642C316.906 394.18 323.557 398.947 323.557 398.947C323.557 398.947 322.57 399.001 320.933 398.974Z" fill="white"/>
</g>
<g opacity="0.3">
<path d="M290.323 386.214C286.846 376.257 294.36 369.978 294.36 369.978L296.294 366.903C296.294 366.903 301.053 366.143 306.163 366.702C303.56 368.726 300.498 372.397 300.409 378.436C300.269 388.216 312.072 395.298 320.067 398.962C312.338 398.764 294.149 397.133 290.323 386.214Z" fill="#000072"/>
</g>
<path d="M321.734 401.101C314.998 401.101 292.931 400.076 288.328 386.908C284.414 375.708 292.652 368.651 293.005 368.357C293.403 368.031 293.903 367.857 294.418 367.865C294.266 367.568 294.186 367.239 294.185 366.906C294.185 366.572 294.263 366.243 294.414 365.945C294.564 365.648 294.783 365.39 295.053 365.193C295.322 364.997 295.635 364.867 295.964 364.814C296.55 364.721 310.512 362.572 317.154 368.817C319.8 371.306 320.934 374.684 320.521 378.859C319.166 392.77 324.755 397.217 324.812 397.259C325.158 397.524 325.415 397.889 325.548 398.305C325.681 398.72 325.684 399.166 325.556 399.583C325.429 399.997 325.177 400.362 324.835 400.628C324.493 400.893 324.077 401.047 323.645 401.068C323.484 401.075 322.8 401.101 321.734 401.101ZM296.239 369.012C296.458 369.438 296.526 369.927 296.43 370.397C296.335 370.866 296.083 371.29 295.715 371.598C295.463 371.813 289.384 377.122 292.316 385.508C295.555 394.779 311.436 396.52 319.192 396.81C317.302 393.468 315.42 387.689 316.322 378.443C316.599 375.601 315.925 373.465 314.262 371.892C310.008 367.886 300.09 368.432 296.629 368.981C296.5 369.002 296.37 369.012 296.239 369.012Z" fill="#000072"/>
<path d="M277.207 320.515C277.207 320.515 274.71 342.126 289.757 354.584C306.226 368.219 305.631 377.677 301.136 378.493C296.641 379.308 294.053 371.581 280.567 365.014C267.869 358.831 256.748 350.472 258.995 330.693" fill="#C2C6D2"/>
<path d="M300.463 380.67C297.799 380.67 295.71 378.752 293.141 376.396C290.287 373.779 286.381 370.196 279.643 366.915C266.409 360.472 254.496 351.593 256.896 330.454C256.922 330.174 257.003 329.902 257.135 329.654C257.268 329.406 257.448 329.187 257.666 329.009C257.884 328.832 258.136 328.699 258.406 328.62C258.676 328.541 258.958 328.517 259.238 328.549C259.517 328.58 259.788 328.667 260.033 328.805C260.278 328.942 260.494 329.127 260.667 329.349C260.839 329.571 260.966 329.825 261.04 330.097C261.113 330.368 261.131 330.651 261.094 330.93C259.107 348.43 267.812 356.453 281.493 363.115C288.784 366.666 292.952 370.489 295.989 373.282C298.38 375.478 299.678 376.607 300.753 376.414C300.931 376.383 301.406 376.295 301.631 375.43C302.292 372.907 300.247 366.02 288.401 356.212C272.653 343.18 274.993 321.201 275.1 320.273C275.164 319.717 275.446 319.208 275.885 318.86C276.323 318.512 276.882 318.352 277.439 318.416C277.996 318.48 278.504 318.762 278.852 319.201C279.201 319.639 279.36 320.198 279.296 320.755C279.274 320.96 277.138 341.401 291.096 352.957C301.792 361.813 307.258 370.615 305.718 376.5C305.148 378.673 303.574 380.196 301.505 380.571C301.161 380.635 300.812 380.668 300.463 380.67Z" fill="#000072"/>
<g opacity="0.3">
<path d="M280.567 365.015C267.868 358.826 256.747 350.469 258.997 330.693L277.208 320.513C277.085 321.823 277.033 323.138 277.053 324.453L273.627 325.518C267.344 344.407 276.495 354.884 287.637 363.564C295.557 369.723 298.596 375.387 301.108 378.5C296.638 379.276 294.026 371.568 280.567 365.015Z" fill="#000072"/>
</g>
<path d="M198.591 230.447C194.132 237.966 183.687 245.459 163.508 251.912C162.804 252.14 162.107 252.354 161.418 252.554C157.243 253.82 152.98 254.773 148.664 255.407C117.169 259.907 101.368 241.75 94.2444 222.125V222.118C88.4854 206.257 88.4121 189.445 90.3201 182.875C95.1405 166.31 129.796 149.539 136.016 179.305C140.032 198.549 147.559 203.885 155.131 203.369C158.538 203.141 161.953 201.728 165.066 199.855C172.264 195.55 177.821 188.835 177.821 188.835C177.821 188.835 210.863 209.746 198.591 230.447Z" fill="#C2C6D2"/>
<g opacity="0.3">
<path d="M161.418 252.554C157.243 253.819 152.98 254.773 148.664 255.407C117.169 259.906 101.368 241.749 94.2441 222.125C102.453 229.657 133.525 254.992 158.123 232.229L161.418 252.554Z" fill="#000072"/>
</g>
<path d="M139.196 258.788C124.362 258.788 112.217 253.44 102.999 242.827C85.6828 222.879 85.0692 191.327 87.743 182.134C91.1577 170.401 106.618 159.772 119.499 160.278C125.248 160.501 135.378 163.198 138.631 178.766C141.779 193.848 147.27 201.221 154.943 200.704C157.57 200.528 160.508 199.474 163.682 197.57C170.383 193.564 175.701 187.202 175.754 187.139L177.256 185.328L179.247 186.584C180.685 187.495 214.339 209.134 200.894 231.817C195.576 240.784 183.271 248.406 164.323 254.467C159.018 256.162 153.876 257.373 149.042 258.061C145.782 258.536 142.491 258.779 139.196 258.788ZM118.625 165.614C108.36 165.614 95.5403 174.508 92.8856 183.625C90.5237 191.747 91.2998 221.172 107.045 239.31C116.955 250.731 130.831 255.248 148.285 252.755C152.824 252.108 157.671 250.965 162.691 249.359C180.353 243.711 191.657 236.886 196.287 229.079C205.512 213.512 184.747 197.011 178.247 192.38C176.004 194.78 171.658 199.036 166.435 202.16C162.53 204.502 158.784 205.81 155.306 206.043C144.557 206.775 137.173 197.964 133.392 179.854C131.505 170.828 126.631 165.908 119.295 165.624C119.071 165.618 118.849 165.614 118.625 165.614Z" fill="#000072"/>
<path d="M280.359 333.789C279.489 334.606 278.579 335.382 277.628 336.118C277.225 336.44 276.824 336.748 276.41 337.049C273.175 339.406 269.513 341.407 265.604 343.095C250.284 349.704 231.068 351.484 217.927 350.928C216.574 350.868 215.291 350.781 214.077 350.68C177.334 347.528 149.782 341.016 142.317 299.984C139.511 284.558 143.234 269.876 148.665 255.407C151.577 247.646 154.977 239.949 158.124 232.229L162.725 210.764L165.067 199.864L168.128 185.609C165.931 161.302 272.74 138.669 269.969 191.736C269.567 199.448 270.994 207.831 273.357 216.608C275.031 222.836 277.173 229.27 279.463 235.79C281.967 242.933 284.645 250.204 287.077 257.461C296.441 285.401 302.186 313.268 280.359 333.789Z" fill="#C2C6D2"/>
<g opacity="0.3">
<path d="M280.36 333.788C279.111 334.957 277.791 336.046 276.406 337.049C259.179 349.595 230.075 352.052 214.073 350.68C178.943 347.668 152.222 341.581 143.417 305.2C154.973 329.59 179.191 334.377 209.787 336.909C225.789 338.234 254.887 335.863 272.12 323.752C273.502 322.787 274.823 321.736 276.074 320.605C295.878 302.636 292.986 278.84 285.287 254.443C285.501 254.322 285.709 254.202 285.915 254.074C295.934 283.131 303.081 312.435 280.36 333.788Z" fill="#000072"/>
</g>
<path d="M162.443 199.301L165.503 185.047L165.453 185.85C165.317 184.097 165.578 182.336 166.218 180.698C166.8 179.186 167.614 177.774 168.632 176.514C169.567 175.326 170.613 174.228 171.756 173.237C172.848 172.273 173.999 171.378 175.201 170.555C179.948 167.307 185.072 165.008 190.283 163.103C200.725 159.406 211.656 157.272 222.721 156.77C228.282 156.49 233.857 156.739 239.37 157.514C244.904 158.319 250.445 159.774 255.624 162.346C258.249 163.639 260.7 165.258 262.92 167.165C265.185 169.113 267.119 171.415 268.648 173.981C270.163 176.555 271.259 179.353 271.898 182.27C272.518 185.127 272.772 188.05 272.652 190.971L272.625 192.031L272.59 192.987C272.573 193.626 272.568 194.266 272.573 194.907C272.586 196.19 272.65 197.478 272.746 198.767C272.96 201.364 273.304 203.948 273.778 206.51C274.727 211.667 276.096 216.795 277.655 221.885C280.783 232.078 284.63 242.142 288.166 252.387C291.702 262.633 295.036 273.066 296.87 283.987C297.78 289.441 298.236 295.027 298.032 300.653L297.886 302.763L297.813 303.817L297.684 304.872L297.423 306.977L297.042 309.073L296.848 310.12L296.593 311.158L296.077 313.23L295.435 315.28C295.323 315.618 295.227 315.962 295.104 316.297L294.716 317.297C293.752 319.992 292.395 322.526 290.973 325.003C289.434 327.407 287.804 329.764 285.892 331.869C285.416 332.396 284.975 332.956 284.47 333.453L282.971 334.958C281.966 335.982 280.9 336.944 279.778 337.837C279.22 338.288 278.652 338.724 278.074 339.146L276.301 340.334L274.523 341.514C273.914 341.872 273.292 342.206 272.677 342.555C267.744 345.316 262.509 347.347 257.193 348.929C251.888 350.478 246.475 351.636 241 352.393C235.546 353.155 230.052 353.585 224.546 353.68H220.409C219.025 353.623 217.646 353.619 216.259 353.516C213.452 353.351 210.809 353.077 208.087 352.818C202.678 352.276 197.252 351.608 191.834 350.63C186.416 349.652 181.02 348.345 175.75 346.454C173.101 345.499 170.514 344.378 168.006 343.098C165.477 341.792 163.053 340.292 160.756 338.612C158.456 336.904 156.31 334.998 154.342 332.915C152.364 330.836 150.639 328.543 149.042 326.18C145.99 321.407 143.617 316.232 141.993 310.805C141.607 309.461 141.17 308.127 140.864 306.768C140.524 305.415 140.186 304.062 139.931 302.699C138.72 297.187 138.263 291.536 138.571 285.902C138.73 283.105 139.043 280.318 139.506 277.555C140.429 272.048 141.877 266.682 143.622 261.475C147.049 251.148 151.486 241.184 156.871 231.729C157.033 231.444 157.293 231.228 157.603 231.121C157.913 231.013 158.251 231.023 158.555 231.146C158.859 231.27 159.107 231.501 159.253 231.794C159.399 232.087 159.434 232.424 159.35 232.741C157.974 238.024 156.129 243.114 154.262 248.145C152.395 253.177 150.422 258.132 148.816 263.175C147.186 268.209 145.877 273.309 145.07 278.452C144.669 281.013 144.408 283.593 144.287 286.183C144.182 288.755 144.219 291.332 144.4 293.9C144.619 296.47 144.999 299.025 145.539 301.548C145.776 302.836 146.093 304.1 146.407 305.364C146.691 306.639 147.097 307.869 147.451 309.118C148.924 314.042 151.054 318.744 153.783 323.099C155.192 325.209 156.701 327.252 158.432 329.095C160.16 330.946 162.045 332.643 164.067 334.167C166.115 335.686 168.277 337.044 170.534 338.229C172.827 339.41 175.193 340.445 177.616 341.328C182.493 343.097 187.602 344.373 192.805 345.321C198.007 346.268 203.293 346.965 208.619 347.489C211.263 347.75 213.99 348.022 216.567 348.172C217.87 348.268 219.191 348.271 220.501 348.327H224.455C229.739 348.235 235.012 347.823 240.246 347.091C245.461 346.373 250.617 345.271 255.671 343.795C260.687 342.304 265.566 340.398 270.047 337.887C270.606 337.572 271.174 337.27 271.726 336.945L273.317 335.885L274.907 334.825C275.418 334.451 275.92 334.066 276.411 333.671C277.399 332.885 278.337 332.037 279.219 331.132L280.577 329.772C281.035 329.324 281.426 328.818 281.853 328.345C283.578 326.457 285.016 324.355 286.393 322.225C287.646 320.028 288.857 317.789 289.706 315.395L290.053 314.517C290.162 314.224 290.247 313.912 290.346 313.61L290.92 311.795L291.38 309.941L291.608 309.014L291.781 308.072L292.125 306.188L292.361 304.284L292.478 303.33L292.544 302.368L292.685 300.427C292.869 295.269 292.455 290.049 291.589 284.865C289.851 274.483 286.611 264.28 283.108 254.144C279.606 244.009 275.743 233.895 272.538 223.458C270.942 218.237 269.518 212.928 268.512 207.472C268.006 204.729 267.639 201.962 267.411 199.183C267.306 197.783 267.235 196.376 267.222 194.961C267.215 194.254 267.221 193.546 267.24 192.836L267.279 191.77L267.301 190.81C267.502 185.795 266.506 180.853 264.048 176.716C261.613 172.565 257.71 169.363 253.233 167.137C248.755 164.911 243.715 163.552 238.59 162.811C233.412 162.087 228.178 161.855 222.957 162.119C212.432 162.598 202.035 164.626 192.102 168.138C187.195 169.925 182.402 172.104 178.239 174.961C176.189 176.397 174.249 177.996 172.849 179.809C171.41 181.61 170.637 183.573 170.783 185.373V185.95L170.735 186.177L167.676 200.432C167.527 201.126 167.108 201.733 166.511 202.119C165.915 202.505 165.189 202.637 164.495 202.488C163.8 202.339 163.193 201.92 162.808 201.324C162.422 200.727 162.289 200.002 162.438 199.307L162.443 199.301Z" fill="#000072"/>
<path d="M281.538 315.731C279.904 322.695 278.639 329.517 277.628 336.118C277.238 338.729 276.88 341.305 276.556 343.845C272.412 376.317 273.872 402.134 267.15 409.445C260.669 416.501 233.064 416.527 225.78 409.884C222.828 407.185 219.293 374.955 217.927 350.925C217.672 346.432 217.498 342.228 217.411 338.559L253.337 325.771L281.538 315.731Z" fill="#C2C6D2"/>
<path d="M285.123 316.343C283.199 324.815 281.699 333.39 280.534 342.025C279.368 350.66 278.571 359.358 277.898 368.089L276.882 381.23C276.511 385.622 276.169 390.033 275.555 394.489C274.912 398.937 274.237 403.443 272.159 408.046C271.582 409.196 270.875 410.36 269.833 411.414C268.852 412.378 267.727 413.182 266.498 413.798C264.219 414.961 261.924 415.621 259.637 416.132C255.062 417.112 250.5 417.402 245.934 417.296C241.363 417.15 236.828 416.654 232.274 415.305C231.114 414.958 229.979 414.531 228.878 414.027C227.685 413.49 226.566 412.801 225.55 411.977L225.141 411.618C225.014 411.493 224.892 411.36 224.777 411.225C224.661 411.091 224.614 411.006 224.535 410.892C224.308 410.544 224.112 410.176 223.949 409.793C223.697 409.202 223.481 408.595 223.301 407.978C222.954 406.821 222.694 405.708 222.456 404.595C221.527 400.16 220.933 395.78 220.362 391.387C219.272 382.61 218.458 373.834 217.81 365.041C217.481 360.648 217.202 356.249 216.975 351.843C216.872 349.639 216.829 347.433 216.886 345.221C216.923 342.998 217.105 340.78 217.432 338.581C217.467 338.354 217.581 338.146 217.754 337.994C217.926 337.843 218.147 337.756 218.376 337.749C218.606 337.743 218.831 337.817 219.012 337.959C219.193 338.101 219.318 338.302 219.366 338.527V338.537C219.827 340.714 220.12 342.89 220.369 345.069C220.516 346.157 220.593 347.248 220.707 348.337L220.962 351.61C221.244 355.978 221.577 360.343 221.959 364.707C222.719 373.431 223.639 382.148 224.823 390.796C225.438 395.107 226.09 399.435 227.02 403.591C227.254 404.616 227.509 405.641 227.808 406.59C227.939 407.025 228.096 407.453 228.278 407.871C228.331 407.993 228.393 408.11 228.465 408.222C228.477 408.243 228.465 408.222 228.465 408.222C228.442 408.188 228.414 408.157 228.38 408.133L228.593 408.313C229.858 409.338 231.744 410.11 233.668 410.666C235.658 411.224 237.69 411.625 239.743 411.865C241.833 412.118 243.935 412.259 246.039 412.287C248.148 412.314 250.257 412.234 252.358 412.048C254.435 411.876 256.498 411.568 258.534 411.124C260.527 410.672 262.48 410.066 264.112 409.221C264.85 408.852 265.528 408.372 266.122 407.798C266.629 407.291 267.094 406.56 267.493 405.748C269.026 402.305 269.765 398.025 270.319 393.798C270.88 389.551 271.197 385.18 271.536 380.824L272.473 367.676C273.791 350.105 275.807 332.424 279.919 315.122C280.089 314.44 280.52 313.853 281.119 313.486C281.718 313.119 282.437 313.002 283.122 313.161C283.806 313.32 284.401 313.741 284.778 314.334C285.154 314.927 285.283 315.644 285.136 316.331L285.123 316.343Z" fill="#000072"/>
<g opacity="0.3">
<path d="M280.359 333.788C279.489 334.605 278.579 335.382 277.628 336.118C277.237 338.729 276.88 341.305 276.556 343.845C272.412 376.317 273.872 402.133 267.15 409.445C260.669 416.501 233.064 416.527 225.779 409.884C224.876 409.059 223.912 405.451 222.981 400.148C233.512 404.153 254.448 403.255 259.986 397.229C265.864 390.835 265.489 370.301 268.066 343.547C267.196 343.426 266.379 343.272 265.603 343.092C256.364 340.916 253.532 334.529 253.337 325.771C253.003 310.68 260.489 288.532 256.504 268.707L287.074 257.465C296.441 285.401 302.185 313.268 280.359 333.788Z" fill="#000072"/>
</g>
<path d="M276.369 207.55C281.787 214.445 286.794 222.854 291.132 232.041C311.814 275.823 317.357 337.283 280.895 337.237C279.295 337.237 277.803 337.169 276.41 337.049C244.848 334.176 263.113 300.064 256.505 267.177" fill="#C2C6D2"/>
<g opacity="0.3">
<path d="M302.266 324.481C298.062 332.416 291.138 337.25 280.888 337.237C279.287 337.237 277.795 337.169 276.402 337.049C244.84 334.176 263.105 300.064 256.497 267.177L256.952 265.799C271.622 290.369 253.652 322.654 286.699 325.66C288.446 325.807 290.307 325.894 292.31 325.894C295.967 325.906 299.273 325.413 302.266 324.481Z" fill="#000072"/>
</g>
<path d="M278.481 205.893C284.718 213.877 289.695 222.64 293.928 231.688C298.134 240.749 301.61 250.131 304.324 259.745C307.019 269.357 309.01 279.197 309.864 289.223C310.316 294.262 310.395 299.327 310.101 304.378C309.773 309.453 309.007 314.569 307.405 319.566C306.591 322.097 305.522 324.539 304.214 326.855C302.859 329.238 301.165 331.412 299.186 333.309C297.152 335.228 294.8 336.779 292.237 337.895C289.7 338.98 287.012 339.668 284.267 339.934C282.934 340.069 281.595 340.118 280.256 340.08L276.362 339.918C273.74 339.625 271.091 339.291 268.455 338.352C265.843 337.465 263.232 336.099 261.087 334.074C258.927 332.071 257.359 329.498 256.379 326.885C255.378 324.262 254.895 321.597 254.63 318.999C254.381 316.443 254.279 313.876 254.323 311.308C254.386 306.261 254.763 301.329 255.026 296.443C255.29 291.557 255.466 286.714 255.539 281.901C255.612 277.088 255.463 272.3 255.189 267.44V267.424C255.169 267.097 255.269 266.775 255.469 266.516C255.669 266.258 255.957 266.08 256.278 266.018C256.599 265.955 256.932 266.011 257.215 266.176C257.498 266.34 257.711 266.601 257.816 266.911C259.45 271.707 260.203 276.757 260.539 281.768C260.901 286.791 260.657 291.788 260.435 296.726C260.214 301.663 259.883 306.551 259.864 311.344C259.843 313.696 259.955 316.047 260.2 318.387C260.447 320.675 260.892 322.888 261.664 324.859C262.436 326.83 263.527 328.547 264.988 329.884C266.449 331.221 268.274 332.204 270.3 332.905C270.819 333.062 271.325 333.235 271.852 333.384L273.482 333.728C274.031 333.848 274.587 333.936 275.147 333.99C275.712 334.055 276.264 334.151 276.838 334.194L280.317 334.34C281.437 334.377 282.559 334.339 283.674 334.227C285.833 334.024 287.948 333.489 289.945 332.642C291.902 331.791 293.698 330.609 295.252 329.146C298.379 326.194 300.552 322.15 301.987 317.801C303.412 313.426 304.153 308.742 304.477 304.01C304.773 299.236 304.716 294.447 304.307 289.681C303.528 280.093 301.646 270.547 299.069 261.212C296.487 251.866 293.142 242.748 289.068 233.949C284.968 225.188 280.153 216.735 274.266 209.203L274.255 209.191C274.039 208.913 273.879 208.596 273.785 208.257C273.691 207.918 273.665 207.563 273.708 207.214C273.751 206.865 273.863 206.527 274.036 206.221C274.21 205.915 274.442 205.646 274.719 205.429C274.997 205.213 275.314 205.053 275.654 204.959C275.993 204.865 276.347 204.839 276.696 204.882C277.046 204.925 277.383 205.037 277.689 205.21C277.996 205.384 278.265 205.616 278.481 205.893Z" fill="#000072"/>
<path d="M423.978 135.649C423.033 145.71 420.464 155.494 416.121 163.396C407.647 178.817 391.584 188.717 378.316 199.845C372.273 204.908 366.555 209.894 361.128 214.237C351.042 222.314 341.971 228.181 333.756 228.304C299.199 228.826 307.323 187.423 307.323 187.423L321.431 92.7382C349.856 78.6519 391.247 67.5687 410.271 83.626C420.928 92.6299 425.959 114.745 423.978 135.649Z" fill="#FF67A0"/>
<g opacity="0.3">
<path d="M357.911 199.498C361.291 204.755 411.797 167.694 411.574 137.581C411.475 124.585 402.964 146.016 389.737 164.13C376.511 182.243 355.964 196.464 357.911 199.498Z" fill="white"/>
</g>
<g opacity="0.3">
<path d="M423.977 135.649C401.369 103.757 357.093 105.709 351.642 138.389C344.893 178.844 332.858 181.364 333.444 200.667C333.852 214.241 349.258 215.388 361.132 214.237C351.046 222.314 341.975 228.181 333.76 228.304C299.203 228.826 307.327 187.423 307.327 187.423L321.435 92.7382C349.86 78.6519 391.251 67.5687 410.275 83.626C420.927 92.6299 425.959 114.745 423.977 135.649Z" fill="#000072"/>
</g>
<path d="M333.109 230.987C323.566 230.987 316.177 227.931 311.137 221.9C300.662 209.363 304.381 188.541 304.68 186.974L313.433 128.217L314.11 127.58C329.777 112.83 369.358 79.519 398.552 88.7074C412.688 93.1559 422.248 106.878 426.959 129.491L427.025 129.807L427.014 130.13C426.559 143.205 423.522 155.479 418.463 164.687C411.669 177.047 400.353 185.873 389.409 194.412C386.278 196.853 383.041 199.378 380.037 201.901C378.078 203.544 376.153 205.178 374.259 206.784C359.07 219.67 345.952 230.798 333.792 230.986C333.564 230.986 333.336 230.987 333.109 230.987ZM318.456 130.846L309.948 187.942C309.91 188.135 306.235 207.698 315.259 218.479C319.331 223.344 325.532 225.735 333.709 225.626C343.949 225.48 356.388 214.917 370.792 202.696C372.691 201.082 374.624 199.448 376.593 197.792C379.668 195.209 382.948 192.654 386.111 190.178C396.628 181.978 407.501 173.497 413.764 162.103C418.385 153.688 421.181 142.391 421.645 130.259C417.336 109.875 409.023 97.6058 396.935 93.8089C370.211 85.401 330.946 119.191 318.456 130.846Z" fill="#000072"/>
<path d="M424.342 130.036C407.582 49.6751 335.084 111.507 315.946 129.528L321.43 92.7382C349.857 78.6518 391.246 67.5672 410.269 83.6259C419.974 91.8288 425.011 110.904 424.342 130.036Z" fill="#C2C6D2"/>
<g opacity="0.7">
<path d="M424.341 130.039C424.306 129.865 424.269 129.689 424.226 129.521C423.803 112.437 418.848 96.2716 410.13 88.9004C391.106 72.8431 349.715 83.9218 321.292 98.0126L316.698 128.827C316.438 129.067 316.19 129.303 315.949 129.53L321.434 92.7382C349.859 78.6519 391.249 67.5687 410.273 83.626C419.971 91.8275 425.01 110.903 424.341 130.039Z" fill="white"/>
</g>
<path d="M424.339 132.715C423.724 132.714 423.128 132.501 422.651 132.113C422.174 131.725 421.845 131.185 421.72 130.583C417.429 110.009 409.093 97.6363 396.944 93.816C369.708 85.2426 329.466 120.476 317.782 131.479C317.377 131.86 316.863 132.106 316.312 132.182C315.761 132.258 315.199 132.16 314.706 131.903C314.213 131.645 313.812 131.24 313.56 130.744C313.307 130.249 313.215 129.686 313.297 129.136L318.781 92.3444C318.845 91.9169 319.012 91.5112 319.267 91.1622C319.522 90.8131 319.857 90.5309 320.245 90.3398C336.206 82.4327 353.967 76.5594 368.97 74.2327C387.94 71.2909 402.822 73.8315 412 81.5805C421.866 89.9195 427.763 108.976 427.023 130.132C427.001 130.786 426.739 131.409 426.288 131.883C425.837 132.358 425.227 132.65 424.575 132.706C424.493 132.712 424.417 132.715 424.339 132.715ZM323.874 94.5232L319.708 122.469C337.865 106.388 372.382 80.472 398.555 88.7071C407.487 91.5185 414.595 98.0331 419.804 108.156C417.615 98.1546 413.666 89.9986 408.543 85.6716C391.702 71.4564 354.13 79.8057 323.874 94.5232Z" fill="#000072"/>
<path d="M173.55 94.696L158.725 151.312C158.725 151.312 149.612 192.509 123.526 179.613C119.209 177.481 115.619 172.631 112.251 166.151C108.167 158.294 104.428 148.028 100.159 137.292C94.1835 122.244 85.6247 107.315 84.8721 90.022C84.6188 84.1649 85.2631 77.8158 86.5926 71.4081C87.6719 66.2481 89.1274 61.174 90.9474 56.2264C133.371 -12.0501 165.656 71.1592 173.55 94.696Z" fill="#FF67A0"/>
<g opacity="0.3">
<path d="M173.55 94.696L158.724 151.312C158.724 151.312 149.612 192.509 123.526 179.613C119.209 177.481 115.619 172.631 112.251 166.151C122.94 150.147 140.365 132.694 145.181 112.3C151.422 85.8767 144.657 51.1366 116.361 50.5465C103.202 50.2697 92.918 61.7175 86.5923 71.4081C87.6715 66.2481 89.127 61.174 90.9471 56.2264C133.37 -12.0501 165.656 71.1592 173.55 94.696Z" fill="#000072"/>
</g>
<path d="M133.208 184.795C129.726 184.795 126.093 183.866 122.34 182.013C112.957 177.375 107.07 162.312 100.255 144.873C99.4091 142.708 98.5481 140.506 97.6666 138.283C96.3106 134.872 94.7819 131.375 93.3045 127.994C88.1385 116.178 82.7953 103.962 82.1979 90.1377C81.7586 79.8673 83.9697 67.497 88.4299 55.3069L88.5251 55.0477L88.6715 54.8134C100.932 35.0851 113.696 25.8441 126.596 27.3523C152.133 30.3336 169.715 74.8448 176.089 93.8438L176.342 94.6023L161.326 151.949C160.973 153.515 155.655 176.11 141.535 182.884C138.94 184.143 136.092 184.796 133.208 184.795ZM87.5484 89.9093C88.1033 102.735 93.243 114.486 98.2113 125.85C99.7078 129.274 101.256 132.813 102.644 136.308C103.522 138.541 104.401 140.752 105.244 142.925C111.387 158.646 117.19 173.495 124.712 177.214C130.097 179.875 134.84 180.151 139.208 178.06C151.177 172.334 156.058 150.955 156.106 150.74L156.129 150.642L170.755 94.7971C165.699 79.9068 148.701 35.3238 125.977 32.6705C115.359 31.4391 104.386 39.7533 93.366 57.4052C89.2045 68.8647 87.1398 80.3944 87.5484 89.9049V89.9093Z" fill="#000072"/>
<path d="M90.9463 56.2264C133.371 -12.0501 165.657 71.1591 173.552 94.696L182.972 58.7157C171.378 39.3872 153.779 16.4829 125.449 20.1289C108.36 22.3254 97.5048 38.2992 90.9463 56.2264Z" fill="#C2C6D2"/>
<g opacity="0.7">
<path d="M182.971 58.7127L173.55 94.6959C173.376 94.1688 173.19 93.6211 172.985 93.0398L180.625 63.8538C169.036 44.5253 151.434 21.6195 123.107 25.267C109.289 27.0461 99.5453 37.8291 92.8564 51.3678C99.5409 35.4921 109.921 22.1247 125.447 20.1259C153.781 16.4843 171.376 39.3827 182.971 58.7127Z" fill="white"/>
</g>
<path d="M173.55 97.3727C172.989 97.3727 172.443 97.1963 171.987 96.8687C171.532 96.5411 171.191 96.0787 171.013 95.5468C166.293 81.4794 149.098 35.3648 125.977 32.6705C115.317 31.4332 104.29 39.8265 93.22 57.6395C92.8699 58.2016 92.3239 58.614 91.6875 58.7972C91.0511 58.9803 90.3695 58.9212 89.7741 58.6313C89.1787 58.3414 88.7119 57.8411 88.4637 57.2272C88.2156 56.6132 88.2036 55.9291 88.4303 55.3069C96.7474 32.5724 109.43 19.4891 125.106 17.4728C155.27 13.5939 173.889 38.3651 185.268 57.3378C185.45 57.6429 185.57 57.9814 185.62 58.3334C185.671 58.6853 185.65 59.0438 185.56 59.3878L176.141 95.3681C175.995 95.9261 175.673 96.4221 175.223 96.7822C174.772 97.1424 174.218 97.3474 173.641 97.3669L173.55 97.3727ZM123.885 27.1927C124.792 27.1928 125.698 27.2456 126.598 27.3508C148.927 29.9572 165.172 64.3122 173.162 85.6043L180.094 59.1286C168.614 40.2013 152.093 19.3983 125.79 22.7837C117.96 23.7911 111.642 28.0302 106.583 33.719C112.294 29.3759 118.061 27.2005 123.885 27.1927Z" fill="#000072"/>
<path d="M134.384 168.09C136.661 188.821 166.834 210.449 216.873 220.855C252.982 228.366 290.32 227.188 309.123 213.15C333.137 195.213 331.844 161.097 335.307 141.298C345.989 80.2376 316.469 45.0436 253.23 35.0983C204.151 27.38 158.104 50.8071 150.135 104.589C147.883 119.789 147.137 127.213 144.718 137.389C142.78 145.514 132.658 152.364 134.384 168.09Z" fill="#C2C6D2"/>
<g opacity="0.3">
<path d="M291.132 232.045C287.329 233.559 283.428 234.813 279.456 235.801C275.074 236.889 270.629 237.706 266.146 238.245C252.018 239.992 236.768 239.329 221.797 236.53C213.922 235.082 206.165 233.049 198.591 230.451C184.068 225.43 172.012 218.66 162.725 210.768C160.025 208.482 157.485 206.012 155.125 203.376C158.533 203.148 161.948 201.735 165.061 199.862L168.121 185.607C165.925 161.3 272.734 138.667 269.962 191.734C269.561 199.446 270.987 207.829 273.35 216.606L276.369 207.548C281.793 214.445 286.794 222.854 291.132 232.045Z" fill="#000072"/>
</g>
<path d="M134.384 168.09C136.661 188.821 166.834 210.449 216.873 220.855C252.982 228.366 290.32 227.188 309.123 213.15C333.137 195.213 331.844 161.097 335.307 141.298C345.989 80.2376 316.469 45.0436 253.23 35.0983C204.151 27.38 158.104 50.8071 150.135 104.589C147.883 119.789 147.137 127.213 144.718 137.389C142.78 145.514 132.658 152.364 134.384 168.09Z" fill="#C2C6D2"/>
<g opacity="0.3">
<path d="M314.563 61.0176C324.589 77.9168 327.449 100.129 322.589 127.724C319.101 147.519 319.861 181.531 297.241 199.739C279.538 213.99 244.727 215.654 211.176 208.639C165.034 198.991 137.286 178.063 135.06 157.565C134.281 160.602 133.941 164.05 134.384 168.086C136.661 188.817 166.834 210.445 216.872 220.851C252.982 228.362 290.319 227.184 309.122 213.146C333.136 195.209 331.843 161.092 335.306 141.294C341.499 105.87 334.163 79.1542 314.563 61.0176Z" fill="#000072"/>
</g>
<g opacity="0.7">
<path d="M333.814 91.8787C321.074 65.018 293.253 48.4203 251.93 41.9189C217.825 36.5567 185.091 45.2868 164.082 67.8967C183.009 40.4869 217.302 29.4462 253.223 35.0998C296.829 41.9526 324.4 60.8125 333.814 91.8787Z" fill="white"/>
</g>
<path d="M259.032 228.112C254.863 228.112 250.551 227.958 246.095 227.648C236.09 226.929 226.145 225.536 216.327 223.478C207.554 221.675 198.893 219.365 190.386 216.561C155.696 204.993 133.765 186.982 131.721 168.386C130.484 157.111 134.865 149.995 138.384 144.272C140.081 141.512 141.547 139.128 142.107 136.771C143.919 129.156 144.777 123.099 146.077 113.928C146.487 111.031 146.941 107.836 147.481 104.193C151.018 80.3255 162.183 60.8696 179.77 47.9415C199.362 33.5403 225.602 28.039 253.64 32.4494C299.124 39.6024 327.001 59.4873 336.519 91.5522C336.621 91.8899 336.655 92.2445 336.619 92.5955C336.584 92.9465 336.479 93.287 336.312 93.5975C336.144 93.908 335.917 94.1824 335.643 94.4048C335.369 94.6273 335.054 94.7934 334.716 94.8937C334.378 94.994 334.023 95.0265 333.672 94.9893C333.321 94.9521 332.981 94.846 332.672 94.677C332.362 94.508 332.089 94.2795 331.868 94.0045C331.647 93.7296 331.482 93.4137 331.383 93.075C322.511 63.1627 296.077 44.5458 252.809 37.7413C226.189 33.5549 201.376 38.7092 182.945 52.2582C166.535 64.3195 156.103 82.5498 152.781 104.972C152.243 108.602 151.791 111.789 151.382 114.673C150.064 123.985 149.186 130.137 147.319 137.996C146.56 141.19 144.805 144.044 142.948 147.065C139.696 152.352 136.01 158.339 137.048 167.788C138.829 184.014 159.917 200.751 192.082 211.469C200.388 214.209 208.847 216.465 217.414 218.226C226.995 220.234 236.701 221.594 246.465 222.296C273.543 224.184 295.226 220.172 307.513 210.996C326.03 197.168 328.768 173.035 330.969 153.644C331.493 149.033 331.987 144.678 332.66 140.828C334.857 128.279 335.333 116.654 334.078 106.271C334.006 105.573 334.211 104.874 334.649 104.325C335.087 103.776 335.723 103.422 336.42 103.337C337.117 103.253 337.82 103.446 338.376 103.874C338.932 104.303 339.298 104.933 339.394 105.628C340.712 116.528 340.222 128.679 337.93 141.746C337.284 145.436 336.8 149.715 336.286 154.244C334.089 173.583 331.085 200.076 310.711 215.284C299.496 223.679 281.419 228.112 259.032 228.112Z" fill="#000072"/>
<path d="M215.108 195.359C215.108 195.359 228.633 206.24 235.105 198.3C240.199 192.052 237.994 183.364 237.994 183.364" fill="#FF67A0"/>
<path d="M228.859 203.337C221.768 203.337 214.225 197.36 213.784 197.005C213.364 196.649 213.1 196.143 213.047 195.595C212.995 195.047 213.158 194.5 213.503 194.07C213.848 193.641 214.347 193.363 214.894 193.296C215.441 193.229 215.992 193.379 216.43 193.712C216.549 193.807 228.398 203.185 233.467 196.966C237.838 191.604 235.965 183.954 235.946 183.878C235.878 183.609 235.864 183.329 235.904 183.054C235.944 182.779 236.037 182.515 236.18 182.277C236.322 182.038 236.509 181.83 236.732 181.664C236.955 181.498 237.208 181.377 237.477 181.309C237.746 181.241 238.026 181.226 238.301 181.266C238.576 181.307 238.84 181.4 239.079 181.542C239.317 181.685 239.525 181.872 239.691 182.095C239.857 182.318 239.978 182.571 240.046 182.84C240.147 183.237 242.446 192.651 236.747 199.635C234.521 202.359 231.726 203.337 228.859 203.337Z" fill="#000072"/>
<path d="M291.482 124.958C293.434 126.604 296.264 124.472 295.176 122.161C292.793 117.095 288.887 111.825 282.71 110.479C271.534 108.044 273.889 115.3 279.756 117.634C283.181 119.003 287.583 121.669 291.482 124.958Z" fill="#000072"/>
<path d="M169.832 102.856C167.489 103.881 165.382 101.044 167.076 99.1326C170.791 94.9433 176.023 90.9883 182.329 91.4364C193.739 92.2491 189.434 98.5469 183.147 99.1341C179.48 99.4768 174.503 100.8 169.832 102.856Z" fill="#000072"/>
<path d="M256.779 33.6501C256.597 37.4117 255.867 41.1267 254.613 44.6776L245.534 40.9349C245.52 34.2797 239.609 26.9744 233.724 21.6855C232.927 20.9694 232.13 20.2929 231.353 19.6574C231.173 19.511 230.991 19.3558 230.818 19.202C222.02 11.355 233.589 -2.02272 242.826 5.29136C254.12 14.2337 257.167 24.6389 256.779 33.6501Z" fill="#C2C6D2"/>
<g opacity="0.7">
<path d="M256.778 33.6501C252.239 19.9386 241.774 7.23739 235.816 11.1002C232.193 13.443 232.635 18.0775 233.726 21.6855C232.929 20.9694 232.133 20.2929 231.355 19.6574C231.175 19.511 230.994 19.3558 230.821 19.202C222.022 11.3549 233.591 -2.02272 242.828 5.29136C254.119 14.2337 257.166 24.6389 256.778 33.6501Z" fill="white"/>
</g>
<path d="M253.351 44.2355C253.427 42.1401 253.677 40.1823 253.815 38.2319C253.953 36.2815 254.108 34.3691 254.095 32.4582C254.074 28.6409 253.404 24.8542 251.911 21.3839C250.447 17.9062 248.289 14.7302 245.675 11.9188L243.625 9.8761L241.401 7.99303C241.231 7.83738 241.053 7.69075 240.868 7.55375L240.402 7.22282C240.096 7.02717 239.775 6.85534 239.443 6.70886C238.825 6.41983 238.159 6.24946 237.478 6.20661C236.16 6.11875 234.782 6.53754 233.596 7.38682C232.406 8.23909 231.508 9.43769 231.025 10.8191C230.586 12.1531 230.586 13.5002 231.123 14.7097C231.415 15.3467 231.804 15.9345 232.277 16.4522C232.555 16.7143 232.794 16.9852 233.135 17.259L234.35 18.284C237.638 21.1188 240.66 24.2729 243.275 27.8809C244.618 29.7253 245.756 31.7097 246.671 33.7995C247.576 35.9535 248.227 38.3549 248.208 40.932C248.196 41.6282 247.914 42.2922 247.42 42.7835C246.927 43.2748 246.262 43.5547 245.566 43.5638C244.869 43.573 244.197 43.3107 243.691 42.8325C243.185 42.3543 242.885 41.6979 242.855 41.0023V40.9394C242.807 39.355 242.312 37.6784 241.559 36.0399C240.768 34.3434 239.795 32.7375 238.658 31.2502C236.346 28.1752 233.507 25.3755 230.495 22.8189L229.323 21.8481C228.829 21.4337 228.357 20.9938 227.909 20.5302C226.969 19.5242 226.199 18.3725 225.628 17.1199C224.442 14.5325 224.406 11.4414 225.32 8.86575C226.211 6.2981 227.877 4.0707 230.089 2.49173C232.267 0.923484 235.068 0.00244715 237.9 0.208911C239.295 0.306889 240.66 0.664441 241.924 1.26319C242.536 1.54353 243.126 1.87156 243.688 2.24427L244.486 2.82119C244.779 3.02326 244.925 3.18873 245.152 3.37323L247.652 5.54475L249.983 7.92567C252.991 11.2086 255.509 15.0421 257.158 19.2636C258.852 23.469 259.558 28.0332 259.479 32.5007C259.454 36.9712 258.307 41.4226 255.875 45.1155C255.709 45.3664 255.466 45.5562 255.182 45.6561C254.899 45.7561 254.59 45.7606 254.304 45.6692C254.017 45.5777 253.768 45.3952 253.595 45.1493C253.422 44.9035 253.333 44.6078 253.344 44.3072L253.351 44.2355Z" fill="#000072"/>
<path d="M245.29 40.7476L238.058 42.8166C234.469 38.2773 225.904 36.8511 219.438 36.7633L218.903 36.7442C218.634 36.7288 218.366 36.6995 218.099 36.6564C209.937 35.3912 210.762 22.6769 219.512 22.6842C232.555 22.6974 239.645 29.4126 243.307 36.2215C244.087 37.675 244.75 39.1885 245.29 40.7476Z" fill="#C2C6D2"/>
<g opacity="0.7">
<path d="M243.307 36.2215C235.374 29.8211 222.565 25.5557 218.802 28.4286C215.609 30.8651 216.593 34.1861 218.099 36.6564C209.937 35.3912 210.762 22.6769 219.512 22.6842C232.555 22.6974 239.645 29.4126 243.307 36.2215Z" fill="white"/>
</g>
<path d="M242.761 41.6247C241.698 38.9187 240.336 36.3357 238.55 34.1378C236.808 31.9376 234.655 30.0975 232.211 28.72C229.781 27.3596 227.074 26.4972 224.248 26.0374L222.106 25.7768L219.925 25.686C219.627 25.667 219.329 25.667 219.031 25.686C218.789 25.7068 218.55 25.747 218.315 25.8061C217.882 25.8956 217.471 26.0676 217.104 26.3127C216.351 26.8376 215.804 27.6071 215.556 28.4901C215.267 29.4432 215.279 30.4625 215.591 31.4084C215.901 32.3045 216.426 33.0015 217.202 33.4262C217.625 33.6504 218.079 33.8079 218.55 33.8933C218.818 33.9196 219.064 33.9709 219.386 33.9782L220.608 34.0295C223.952 34.2242 227.317 34.6152 230.601 35.7061C232.279 36.256 233.876 37.0271 235.35 37.9991C236.838 38.9963 238.238 40.3141 239.113 41.9776C239.255 42.2491 239.302 42.5607 239.245 42.8619C239.188 43.1631 239.03 43.4361 238.799 43.6368C238.567 43.8375 238.274 43.9541 237.968 43.9676C237.662 43.9811 237.36 43.8908 237.112 43.7113L237.015 43.641C234.786 42.02 232.091 41.1956 229.241 40.5836C226.335 39.9681 223.378 39.6201 220.409 39.5439L219.249 39.5278C218.734 39.5174 218.221 39.4803 217.71 39.4165C216.609 39.257 215.542 38.9202 214.548 38.4194C212.481 37.3797 210.876 35.4293 210.145 33.3325C209.407 31.2535 209.333 28.9962 209.935 26.8735C210.54 24.6685 211.892 22.7418 213.759 21.422C214.706 20.7668 215.766 20.2922 216.885 20.0221C217.421 19.8882 217.967 19.7961 218.517 19.7469L219.319 19.7088C219.612 19.6897 219.77 19.7176 220.003 19.719L222.583 19.823L225.172 20.1364C228.68 20.6617 232.062 21.8297 235.147 23.5818C238.271 25.3302 240.932 27.8385 243.054 30.6367C244.112 32.0323 245.046 33.5179 245.845 35.0764C246.622 36.6233 247.28 38.2268 247.814 39.8734C248.041 40.5359 247.999 41.2609 247.697 41.8928C247.395 42.5248 246.858 43.0133 246.2 43.2538C245.543 43.4942 244.817 43.4673 244.179 43.1789C243.541 42.8905 243.041 42.3636 242.787 41.7111L242.761 41.6247Z" fill="#000072"/>
<path d="M237.993 183.36C204.392 195.513 220.669 236.908 188.509 261.289C181.534 266.578 172.256 271.154 161.463 264.618C156.399 261.555 154.629 253.556 154.629 253.556C154.629 253.556 143.778 250.952 144.496 244.426C146.019 230.556 160.678 241.035 165.377 229.454C174.853 206.104 166.695 203.666 169.709 178.752C171.448 164.402 177.598 154.85 183.474 149.601C195.405 138.936 213.808 140.882 219.305 153.354" fill="#C2C6D2"/>
<g opacity="0.3">
<path d="M188.512 261.289C181.534 266.581 172.259 271.157 161.46 264.62C156.398 261.555 154.629 253.557 154.629 253.557C154.629 253.557 143.779 250.951 144.498 244.428C144.79 241.814 145.54 240.067 146.596 238.874C145.977 247.349 157.251 245.956 159.256 247.404C161.261 248.853 162.1 253.9 167.627 256.012C177.536 259.798 184.537 255.156 188.805 251.217C214.941 227.098 198.984 160.871 237.535 172L237.996 183.36C204.388 195.507 220.672 236.91 188.512 261.289Z" fill="#000072"/>
</g>
<path d="M238.712 185.345L236.817 186.118L235.87 186.506L234.964 186.968C234.363 187.28 233.748 187.568 233.158 187.896L231.442 188.965C229.203 190.452 227.172 192.23 225.403 194.253C223.659 196.336 222.152 198.605 220.908 201.02C219.622 203.444 218.613 206.05 217.676 208.695C215.818 214.001 214.455 219.577 212.832 225.149C211.242 230.725 209.397 236.333 206.864 241.704C204.297 247.05 201.043 252.166 196.907 256.518C196.39 257.06 195.882 257.616 195.359 258.145L193.715 259.674C192.647 260.728 191.435 261.606 190.288 262.566C187.923 264.463 185.355 266.094 182.633 267.43C179.804 268.832 176.73 269.671 173.581 269.9C170.384 270.14 167.138 269.536 164.22 268.35C163.508 268.022 162.755 267.764 162.079 267.37L161.054 266.811C160.692 266.626 160.342 266.418 160.007 266.188C158.6 265.235 157.379 264.032 156.403 262.64C155.482 261.343 154.702 259.951 154.077 258.488C153.76 257.773 153.491 257.047 153.232 256.313C152.973 255.58 152.763 254.871 152.56 254.017L154.129 255.615C153.186 255.379 152.257 255.088 151.347 254.745C150.443 254.406 149.559 254.015 148.7 253.573C146.976 252.661 145.227 251.537 143.844 249.684C143.11 248.716 142.609 247.592 142.38 246.398C142.319 246.092 142.282 245.782 142.267 245.47C142.242 245.162 142.242 244.853 142.267 244.545C142.279 244.273 142.307 244.002 142.352 243.733L142.458 242.991C142.538 242.495 142.671 241.987 142.786 241.484C142.963 240.975 143.078 240.468 143.326 239.959C144.213 237.781 145.92 236.039 148.079 235.109C149.042 234.701 150.045 234.395 151.072 234.198C152.996 233.814 154.771 233.691 156.371 233.413C157.972 233.135 159.391 232.753 160.49 232.065C161.59 231.376 162.413 230.391 163.007 229.079L163.231 228.593L163.461 227.992L163.918 226.787C164.211 225.983 164.537 225.177 164.824 224.377C165.327 222.752 165.934 221.141 166.312 219.501C167.191 216.236 167.74 212.948 167.791 209.625C167.867 206.301 167.459 202.889 167.161 199.342C166.864 195.796 166.646 192.167 166.75 188.549C166.75 186.738 166.921 184.943 167.011 183.131C167.197 181.338 167.347 179.56 167.596 177.757C168.081 174.129 168.904 170.554 170.053 167.078C171.201 163.574 172.746 160.213 174.657 157.06C175.613 155.471 176.676 153.95 177.839 152.506C178.998 151.04 180.276 149.673 181.661 148.419C184.458 145.857 187.727 143.863 191.285 142.55C194.842 141.241 198.631 140.684 202.414 140.913C206.182 141.143 209.94 142.249 213.147 144.312C216.354 146.375 218.941 149.41 220.262 152.925C220.359 153.178 220.355 153.459 220.25 153.709C220.145 153.96 219.949 154.16 219.7 154.269C219.452 154.379 219.171 154.388 218.916 154.296C218.661 154.204 218.451 154.018 218.329 153.775C216.847 150.843 214.505 148.433 211.616 146.867C208.779 145.293 205.517 144.536 202.259 144.474C198.983 144.43 195.731 145.033 192.69 146.25C189.655 147.47 186.877 149.25 184.501 151.497C179.709 156.036 176.266 162.04 174.209 168.449C173.17 171.672 172.435 174.985 172.013 178.345C171.794 180.031 171.663 181.767 171.496 183.47C171.428 185.183 171.267 186.897 171.291 188.611C171.22 192.04 171.437 195.443 171.768 198.913C172.099 202.384 172.5 205.98 172.428 209.707C172.357 213.433 171.739 217.144 170.784 220.668C170.362 222.463 169.727 224.156 169.184 225.893C168.879 226.743 168.547 227.58 168.229 228.424L167.747 229.687L167.506 230.319L167.179 231.034C166.728 232.016 166.149 232.935 165.457 233.766C164.733 234.623 163.882 235.364 162.934 235.963C161.031 237.144 158.96 237.652 157.105 237.945C155.25 238.238 153.482 238.354 151.949 238.651C150.416 238.948 149.182 239.408 148.416 240.221C147.619 241.007 147.085 242.26 146.83 243.751L146.745 244.316C146.712 244.481 146.692 244.648 146.683 244.816C146.67 244.946 146.67 245.078 146.683 245.208C146.685 245.336 146.699 245.464 146.724 245.59C146.825 246.134 147.052 246.646 147.388 247.085C148.871 249.113 152.173 250.671 155.116 251.494L156.383 251.818L156.686 253.092C156.816 253.639 157.023 254.325 157.231 254.937C157.439 255.549 157.685 256.184 157.95 256.788C158.456 257.974 159.087 259.103 159.831 260.155C160.506 261.13 161.353 261.973 162.329 262.645C162.587 262.823 162.858 262.983 163.139 263.122L164.007 263.598C164.289 263.762 164.583 263.904 164.886 264.024L165.784 264.414C168.195 265.392 170.762 265.863 173.31 265.671C175.919 265.475 178.466 264.772 180.807 263.604C183.255 262.397 185.563 260.924 187.689 259.211C188.749 258.321 189.886 257.509 190.861 256.534L192.381 255.124C192.868 254.635 193.331 254.121 193.807 253.622C197.614 249.611 200.619 244.896 203.032 239.875C205.413 234.823 207.19 229.457 208.756 223.964C210.35 218.481 211.724 212.856 213.671 207.286C214.655 204.504 215.73 201.722 217.142 199.06C218.537 196.353 220.229 193.81 222.188 191.478C224.211 189.16 226.535 187.123 229.099 185.423L231.051 184.209C231.716 183.837 232.405 183.511 233.082 183.161L234.107 182.645L235.158 182.216L237.264 181.361C237.783 181.15 238.364 181.154 238.879 181.372C239.395 181.59 239.803 182.004 240.014 182.522C240.225 183.041 240.221 183.622 240.003 184.138C239.785 184.653 239.371 185.061 238.853 185.272L238.712 185.345Z" fill="#000072"/>
<path d="M249.349 188.866C247.094 189.385 244.872 189.259 242.644 188.624C240.354 187.97 238.298 186.681 236.712 184.905C235.899 183.95 235.161 182.799 234.82 181.575C234.457 180.398 234.308 179.165 234.381 177.935C234.453 176.784 234.681 175.648 235.059 174.558C235.421 173.49 235.933 172.479 236.58 171.555C236.721 171.36 236.922 171.218 237.153 171.151C237.384 171.085 237.631 171.097 237.853 171.187C238.076 171.278 238.262 171.44 238.382 171.648C238.501 171.857 238.548 172.099 238.513 172.337L238.497 172.445C238.223 174.289 238.047 176.214 238.216 177.894C238.402 179.597 238.911 180.997 239.887 182.131C241.01 183.409 242.386 184.439 243.928 185.157C245.505 185.914 247.373 186.433 249.17 186.767L249.305 186.792C249.545 186.836 249.764 186.961 249.922 187.147C250.081 187.333 250.171 187.568 250.177 187.812C250.183 188.056 250.104 188.295 249.954 188.488C249.804 188.681 249.591 188.817 249.353 188.871L249.349 188.866Z" fill="#000072"/>
<path d="M205.882 164.891C204.246 162.801 202.375 160.907 200.306 159.247C198.242 157.597 195.984 156.224 193.606 155.317C191.224 154.449 188.722 154.043 186.313 154.384C185.708 154.436 185.12 154.601 184.526 154.718C183.948 154.915 183.355 155.049 182.8 155.304C181.656 155.727 180.589 156.373 179.541 157.029L179.442 157.092C178.967 157.389 178.393 157.485 177.846 157.359C177.3 157.233 176.826 156.895 176.529 156.42C176.231 155.944 176.135 155.37 176.261 154.824C176.387 154.277 176.725 153.803 177.201 153.506C177.234 153.484 177.274 153.46 177.308 153.443C178.634 152.711 179.99 152.024 181.463 151.574C182.179 151.307 182.945 151.166 183.687 150.979C184.45 150.867 185.206 150.721 185.979 150.699C189.063 150.47 192.119 151.191 194.819 152.384C197.519 153.617 199.907 155.313 202.023 157.237C204.137 159.163 206.017 161.33 207.626 163.694C207.774 163.921 207.83 164.197 207.782 164.463C207.733 164.73 207.583 164.968 207.364 165.128C207.144 165.287 206.872 165.356 206.603 165.32C206.334 165.284 206.089 165.146 205.92 164.935L205.882 164.891Z" fill="#000072"/>
<path d="M281.674 166.299C282.28 161.158 282.564 155.877 281.578 151.186C281.129 148.931 280.208 146.796 278.876 144.921C277.546 143.118 275.796 141.666 273.779 140.692C271.716 139.629 269.547 138.944 267.359 138.967C265.172 138.99 262.997 139.622 260.977 140.796C258.956 141.97 257.104 143.619 255.493 145.533C255.109 146.026 254.688 146.499 254.321 147.018C253.955 147.536 253.576 148.043 253.231 148.586L252.238 150.236C251.945 150.81 251.632 151.375 251.324 151.951L251.276 152.043C251.119 152.334 250.859 152.557 250.548 152.669C250.236 152.781 249.894 152.773 249.588 152.647C249.282 152.522 249.033 152.288 248.889 151.989C248.746 151.691 248.717 151.35 248.81 151.033C249.01 150.355 249.199 149.667 249.42 148.983C249.668 148.315 249.939 147.653 250.199 146.985C250.484 146.327 250.809 145.684 251.125 145.034C251.441 144.383 251.857 143.783 252.22 143.153C253.788 140.702 255.793 138.434 258.319 136.667C260.845 134.899 263.929 133.691 267.168 133.529C270.407 133.366 273.61 134.163 276.347 135.539C277.776 136.202 279.118 137.038 280.343 138.028C281.57 139.066 282.66 140.255 283.587 141.568C284.489 142.87 285.218 144.284 285.755 145.774C286.289 147.213 286.674 148.703 286.903 150.22C287.336 153.135 287.301 156.101 286.799 159.006C286.562 160.416 286.23 161.81 285.806 163.176C285.388 164.55 284.852 165.886 284.206 167.169C284.061 167.451 283.821 167.673 283.529 167.796C283.237 167.919 282.911 167.936 282.608 167.843C282.305 167.751 282.044 167.555 281.871 167.289C281.697 167.024 281.623 166.706 281.66 166.392L281.674 166.299Z" fill="#000072"/>
<path d="M157.574 138.251C157.586 136.914 157.7 135.579 157.915 134.259C158.122 132.946 158.404 131.646 158.76 130.366C159.478 127.744 160.536 125.227 161.907 122.879C163.316 120.504 165.098 118.193 167.487 116.351C168.71 115.425 170.054 114.672 171.482 114.112C172.921 113.537 174.495 113.265 175.996 113.145C177.529 113.019 179.071 113.125 180.572 113.459C183.698 114.156 186.461 115.972 188.342 118.564C189.226 119.761 189.939 121.075 190.461 122.469C191.486 125.171 191.893 127.94 191.925 130.646C191.958 133.32 191.637 135.987 190.969 138.576C190.885 138.895 190.688 139.173 190.413 139.356C190.139 139.54 189.807 139.616 189.48 139.57C189.153 139.525 188.854 139.361 188.64 139.11C188.426 138.859 188.312 138.539 188.318 138.209V138.185C188.392 135.77 188.251 133.354 187.899 130.963C187.538 128.621 186.915 126.364 185.949 124.403C184.983 122.443 183.653 120.847 182.045 119.914C180.445 118.958 178.516 118.685 176.437 118.876C174.422 119.051 172.623 119.801 170.934 120.983C169.185 122.302 167.68 123.917 166.487 125.755C163.935 129.562 162.024 134.135 160.21 138.685L160.185 138.746C160.068 139.039 159.853 139.282 159.577 139.433C159.3 139.585 158.98 139.635 158.67 139.576C158.36 139.517 158.081 139.352 157.88 139.11C157.678 138.867 157.568 138.562 157.567 138.247L157.574 138.251Z" fill="#000072"/>
<g opacity="0.3">
<path d="M113.017 131.542C107.545 134.561 87.4752 94.6155 101.992 68.2306C108.256 56.8444 107.322 79.5759 108.581 101.969C109.473 117.764 116.171 129.802 113.017 131.542Z" fill="white"/>
</g>
<path d="M106.765 147.048L95.1972 165.118C94.8897 161.778 90.6448 153.033 89.1937 145.28C88.0413 139.181 88.624 133.691 94.222 131.955C100.341 130.051 103.756 135.161 105.43 140.062C106.417 142.95 106.791 145.776 106.765 147.048Z" fill="#C2C6D2"/>
<g opacity="0.3">
<path d="M106.764 147.049L95.1964 165.118C94.8889 161.778 90.644 153.033 89.1929 145.28C92.9151 146.606 98.7195 146.744 105.429 140.058C106.416 142.95 106.791 145.776 106.764 147.049Z" fill="#6B184E"/>
</g>
<path d="M95.1971 167.796C94.53 167.795 93.8872 167.545 93.3945 167.095C92.9019 166.645 92.5948 166.028 92.5336 165.364C92.4252 164.201 91.4397 161.464 90.4836 158.818C87.7717 151.289 84.0568 140.977 87.3032 134.45C88.5332 131.977 90.5934 130.277 93.4253 129.394C96.758 128.357 99.9033 128.853 102.523 130.83C107.932 134.912 109.505 144.328 109.437 147.114C109.42 147.824 109.122 148.499 108.607 148.989C108.093 149.479 107.405 149.744 106.695 149.727C105.985 149.71 105.311 149.412 104.821 148.898C104.331 148.383 104.065 147.696 104.082 146.985C104.131 145.028 102.779 137.734 99.2971 135.104C98.0612 134.173 96.7024 133.983 95.0184 134.508C93.5966 134.948 92.6756 135.69 92.0987 136.835C89.87 141.314 93.2701 150.756 95.5222 157.003C96.7361 160.37 97.6937 163.028 97.865 164.87C97.8977 165.22 97.861 165.574 97.7571 165.91C97.6532 166.246 97.484 166.558 97.2594 166.828C97.0347 167.099 96.759 167.323 96.4478 167.487C96.1367 167.651 95.7962 167.752 95.446 167.784C95.364 167.791 95.2791 167.796 95.1971 167.796Z" fill="#000072"/>
<path d="M144.791 190.167C142.79 202.533 138.961 213.889 119.43 213.823C111.316 213.789 93.707 210.843 89.1004 189.311C84.6548 168.518 105.411 135.507 123.649 132.763C124.285 132.663 124.926 132.602 125.57 132.581C128.274 132.501 132.735 134.751 133.216 139.024C134.167 147.447 123.769 158.152 123.769 158.152C123.769 158.152 143.138 167.144 144.979 183.748C145.205 185.886 145.142 188.046 144.791 190.167Z" fill="#C2C6D2"/>
<g opacity="0.7">
<path d="M144.973 183.751C138.807 172.369 124.292 165.922 120.028 160.762C116.111 156.014 125.075 152.245 127.834 142.67C129.347 137.421 126.616 134.429 123.643 132.769C124.279 132.669 124.921 132.608 125.564 132.587C128.269 132.507 132.729 134.757 133.211 139.03C134.161 147.453 123.763 158.158 123.763 158.158C123.763 158.158 143.133 167.147 144.973 183.751Z" fill="white"/>
</g>
<path d="M99.0095 208.617C96.464 207.265 94.2241 205.403 92.429 203.148C90.6111 200.902 89.1677 198.378 88.1547 195.671C87.6504 194.338 87.2144 192.979 86.8486 191.601C86.689 190.905 86.4972 190.242 86.3669 189.519C86.2365 188.795 86.0872 188.073 85.9979 187.349C85.6396 184.491 85.6244 181.6 85.9525 178.739C86.261 175.938 86.7903 173.165 87.5354 170.448C88.3022 167.771 89.2383 165.146 90.338 162.588C91.4242 160.039 92.6592 157.557 94.0368 155.153C95.3936 152.74 96.8988 150.413 98.5438 148.186C101.818 143.72 105.621 139.588 110.132 136.138C112.396 134.426 114.846 132.882 117.566 131.728C118.263 131.466 118.938 131.168 119.656 130.946C120.388 130.748 121.086 130.488 121.842 130.36C122.598 130.233 123.333 130.034 124.118 129.998L125.279 129.903C125.511 129.886 125.743 129.883 125.976 129.896C126.221 129.9 126.465 129.919 126.708 129.953C128.466 130.189 130.142 130.842 131.597 131.857C133.02 132.842 134.312 134.2 135.092 135.932C135.484 136.785 135.743 137.693 135.86 138.625C135.902 139.064 135.901 139.468 135.918 139.891C135.947 140.304 135.941 140.719 135.898 141.131C135.807 141.929 135.751 142.752 135.542 143.49L135.274 144.628L134.918 145.701C133.933 148.548 132.525 151.064 130.964 153.404C130.169 154.575 129.354 155.708 128.475 156.796C127.597 157.884 126.728 158.928 125.693 160.018L124.899 155.723C125.632 156.051 126.217 156.342 126.845 156.669C127.474 156.995 128.071 157.325 128.666 157.679C129.857 158.38 131.022 159.126 132.159 159.918C134.458 161.501 136.607 163.293 138.577 165.27C140.592 167.288 142.366 169.532 143.866 171.957C145.391 174.453 146.521 177.17 147.215 180.011C147.417 180.72 147.508 181.459 147.646 182.181C147.758 182.913 147.81 183.645 147.883 184.377C147.894 185.11 147.927 185.851 147.911 186.586C147.859 187.318 147.846 188.05 147.755 188.782C147.665 189.514 147.566 190.255 147.443 190.92C147.32 191.585 147.197 192.238 147.058 192.91C146.796 194.239 146.464 195.572 146.079 196.904C145.326 199.565 144.24 202.227 142.677 204.665C141.884 205.883 140.962 207.012 139.927 208.033C138.886 209.032 137.72 209.895 136.46 210.598C136.176 210.762 135.842 210.817 135.521 210.752C135.199 210.688 134.912 210.508 134.713 210.248C134.514 209.988 134.417 209.664 134.439 209.337C134.462 209.01 134.602 208.702 134.835 208.471L134.864 208.443C138.318 204.939 139.989 200.468 141.039 195.616C141.308 194.406 141.526 193.17 141.742 191.921C141.85 191.298 141.945 190.667 142.034 190.034C142.124 189.401 142.16 188.863 142.231 188.268C142.412 185.964 142.203 183.646 141.611 181.412C141.001 179.162 140.067 177.013 138.839 175.031C137.556 173 136.062 171.11 134.382 169.392C132.651 167.641 130.791 166.022 128.818 164.548C127.824 163.807 126.803 163.102 125.755 162.434C125.23 162.103 124.702 161.778 124.175 161.46C123.647 161.142 123.084 160.825 122.63 160.581L122.526 160.526C122.213 160.361 121.936 160.137 121.71 159.865C121.485 159.593 121.315 159.279 121.21 158.942C121.106 158.604 121.069 158.249 121.102 157.898C121.134 157.546 121.236 157.204 121.401 156.891C121.52 156.671 121.668 156.468 121.841 156.287C122.637 155.443 123.494 154.436 124.27 153.462C125.046 152.488 125.796 151.452 126.503 150.418C127.898 148.346 129.089 146.161 129.843 143.975L130.118 143.157L130.304 142.347C130.468 141.801 130.475 141.287 130.549 140.764C130.58 140.515 130.583 140.263 130.559 140.013C130.546 139.773 130.559 139.51 130.534 139.281C130.483 138.895 130.373 138.52 130.207 138.168C129.893 137.46 129.294 136.804 128.537 136.286C127.798 135.774 126.95 135.441 126.061 135.312C125.974 135.298 125.885 135.291 125.797 135.292C125.699 135.286 125.601 135.289 125.504 135.301L124.677 135.377C124.125 135.391 123.568 135.558 123.013 135.649C122.458 135.74 121.908 135.964 121.353 136.109C120.799 136.282 120.258 136.531 119.707 136.734C117.53 137.671 115.436 138.982 113.477 140.503C109.557 143.561 106.098 147.366 103.131 151.51C101.634 153.581 100.255 155.735 99.0007 157.962C97.7354 160.181 96.6015 162.472 95.605 164.823C93.6253 169.509 92.1464 174.416 91.5314 179.348C91.209 181.776 91.1795 184.234 91.4435 186.669C91.505 187.267 91.6295 187.841 91.7144 188.438C91.7994 189.035 91.9765 189.647 92.1039 190.251C92.4023 191.45 92.761 192.634 93.1787 193.797C93.9916 196.105 95.0212 198.331 96.2537 200.445C97.491 202.559 98.9773 204.527 100.647 206.488L100.67 206.517C100.875 206.757 100.991 207.061 100.997 207.377C101.002 207.693 100.898 208.001 100.701 208.248C100.505 208.496 100.228 208.667 99.9194 208.733C99.6104 208.798 99.2882 208.754 99.008 208.608L99.0095 208.617Z" fill="#000072"/>
<path d="M174.442 371.239C175.003 371.674 175.611 372.047 176.255 372.348C176.925 372.668 177.618 372.937 178.328 373.152C179.777 373.568 181.271 373.807 182.777 373.863C184.294 373.953 185.833 373.824 187.375 373.69L189.698 373.397C190.474 373.264 191.251 373.122 192.041 373.022L192.101 373.015C192.306 372.99 192.512 373.04 192.682 373.156C192.852 373.272 192.974 373.446 193.025 373.645C193.076 373.844 193.053 374.056 192.96 374.239C192.868 374.423 192.711 374.566 192.52 374.643C191.748 374.951 190.959 375.217 190.168 375.491C189.36 375.706 188.543 375.904 187.719 376.077C186.054 376.331 184.351 376.528 182.636 376.383C180.904 376.299 179.195 375.945 177.571 375.334C176.751 375.018 175.966 374.618 175.228 374.141C174.482 373.638 173.812 373.145 173.165 372.354C173.031 372.194 172.96 371.99 172.968 371.781C172.976 371.572 173.062 371.374 173.208 371.225C173.354 371.076 173.551 370.986 173.76 370.974C173.968 370.962 174.174 371.028 174.337 371.159L174.442 371.239Z" fill="#000072"/>
<path d="M174.442 365.355C175.003 365.791 175.611 366.164 176.255 366.465C176.925 366.785 177.618 367.054 178.328 367.269C179.777 367.685 181.271 367.924 182.777 367.981C184.294 368.071 185.833 367.941 187.375 367.808L189.698 367.515C190.474 367.38 191.251 367.238 192.041 367.139L192.101 367.131C192.306 367.106 192.512 367.157 192.682 367.273C192.852 367.389 192.974 367.563 193.025 367.762C193.076 367.961 193.053 368.172 192.96 368.356C192.868 368.539 192.711 368.683 192.52 368.76C191.748 369.069 190.959 369.334 190.168 369.608C189.36 369.823 188.543 370.022 187.719 370.193C186.054 370.447 184.351 370.643 182.636 370.498C180.903 370.415 179.194 370.061 177.571 369.449C176.751 369.134 175.966 368.734 175.228 368.257C174.482 367.754 173.812 367.26 173.165 366.47C173.031 366.31 172.96 366.105 172.968 365.896C172.976 365.688 173.062 365.489 173.208 365.34C173.354 365.191 173.551 365.101 173.76 365.089C173.968 365.077 174.174 365.143 174.337 365.275L174.442 365.355Z" fill="#000072"/>
<path d="M231.73 369.981C232.291 370.417 232.899 370.79 233.542 371.092C234.212 371.411 234.906 371.68 235.616 371.896C237.065 372.311 238.558 372.549 240.063 372.606C241.58 372.697 243.119 372.568 244.663 372.433L246.987 372.133C247.761 372 248.537 371.858 249.329 371.76L249.388 371.751C249.592 371.726 249.799 371.775 249.97 371.891C250.14 372.007 250.262 372.181 250.314 372.381C250.365 372.58 250.342 372.791 250.249 372.975C250.156 373.159 249.999 373.303 249.808 373.379C249.037 373.688 248.246 373.953 247.455 374.229C246.647 374.442 245.831 374.642 245.007 374.814C243.34 375.068 241.639 375.264 239.924 375.119C238.191 375.036 236.482 374.682 234.858 374.071C234.038 373.755 233.253 373.355 232.515 372.877C231.77 372.375 231.099 371.881 230.452 371.092C230.316 370.933 230.244 370.728 230.251 370.518C230.258 370.308 230.344 370.108 230.49 369.958C230.637 369.808 230.835 369.719 231.045 369.707C231.254 369.696 231.461 369.763 231.623 369.896L231.73 369.981Z" fill="#000072"/>
<path d="M231.731 364.101C232.292 364.536 232.899 364.909 233.542 365.211C234.212 365.531 234.906 365.799 235.617 366.014C237.065 366.43 238.558 366.669 240.064 366.726C241.581 366.815 243.12 366.687 244.663 366.552L246.987 366.259C247.762 366.126 248.538 365.984 249.33 365.884L249.388 365.877C249.593 365.851 249.8 365.901 249.97 366.017C250.14 366.133 250.263 366.307 250.314 366.506C250.366 366.706 250.343 366.917 250.25 367.101C250.157 367.285 250 367.428 249.809 367.505C249.037 367.813 248.246 368.079 247.456 368.353C246.647 368.568 245.832 368.766 245.007 368.939C243.341 369.193 241.639 369.39 239.925 369.245C238.192 369.161 236.482 368.808 234.858 368.196C234.038 367.88 233.253 367.48 232.515 367.003C231.77 366.501 231.1 366.007 230.452 365.216C230.318 365.056 230.248 364.852 230.255 364.643C230.263 364.434 230.349 364.236 230.495 364.087C230.642 363.938 230.838 363.848 231.047 363.836C231.255 363.824 231.461 363.89 231.624 364.022L231.731 364.101Z" fill="#000072"/>
<path d="M234.959 409.809C234.963 411.102 234.691 412.38 234.162 413.56C230.56 412.737 227.561 411.51 225.779 409.884C224.923 409.101 224.022 405.84 223.129 401.006C223.986 400.747 224.878 400.616 225.773 400.618C226.98 400.619 228.175 400.857 229.289 401.319C230.404 401.781 231.417 402.458 232.27 403.311C233.123 404.165 233.799 405.178 234.261 406.293C234.722 407.408 234.959 408.603 234.959 409.809Z" fill="white"/>
<path d="M253.337 411.782C253.338 412.69 253.203 413.592 252.936 414.46C247.079 415.096 240.55 414.861 235.18 413.776C235.032 413.122 234.957 412.453 234.959 411.782C234.944 410.565 235.17 409.358 235.625 408.23C236.08 407.101 236.754 406.075 237.609 405.209C238.464 404.343 239.482 403.656 240.605 403.187C241.727 402.718 242.932 402.476 244.148 402.476C245.365 402.476 246.569 402.718 247.692 403.187C248.814 403.656 249.833 404.343 250.687 405.209C251.542 406.075 252.217 407.101 252.672 408.23C253.126 409.358 253.353 410.565 253.337 411.782Z" fill="white"/>
<path d="M269.386 405.668C268.764 407.228 268.027 408.494 267.15 409.452C264.794 412.016 259.651 413.649 253.712 414.372C253.462 413.532 253.335 412.659 253.337 411.782C253.336 409.919 253.901 408.099 254.957 406.564C256.014 405.03 257.512 403.853 259.253 403.19C260.994 402.526 262.896 402.408 264.706 402.851C266.515 403.294 268.148 404.276 269.386 405.668Z" fill="white"/>
<path d="M235.98 415.52L234.631 415.211C230.486 414.263 227.408 412.893 225.485 411.136C224.633 410.355 223.658 408.627 222.312 401.316L222.039 399.833L223.482 399.394C224.499 399.085 225.556 398.929 226.619 398.931C229.503 398.935 232.268 400.084 234.307 402.124C236.346 404.165 237.492 406.93 237.494 409.815C237.499 411.346 237.177 412.861 236.548 414.258L235.98 415.52ZM225.951 402.341C227.016 407.635 227.708 408.572 227.792 408.667C229.023 409.789 231.129 410.78 233.915 411.547C234.174 410.446 234.181 409.3 233.935 408.196C233.689 407.091 233.197 406.056 232.496 405.169C231.795 404.281 230.902 403.563 229.884 403.068C228.866 402.574 227.75 402.315 226.619 402.312C226.395 402.311 226.172 402.319 225.951 402.341Z" fill="#000072"/>
<path d="M247.145 416.501C243.156 416.501 239.194 416.139 235.697 415.432L234.627 415.217L234.384 414.154C234.208 413.375 234.119 412.58 234.12 411.782C234.104 410.342 234.373 408.914 234.912 407.58C235.451 406.245 236.25 405.031 237.262 404.007C238.274 402.984 239.478 402.171 240.807 401.616C242.135 401.061 243.56 400.776 244.999 400.776C246.439 400.776 247.864 401.061 249.192 401.616C250.52 402.171 251.725 402.984 252.737 404.007C253.749 405.031 254.547 406.245 255.087 407.58C255.626 408.914 255.895 410.342 255.878 411.782C255.88 412.859 255.719 413.93 255.402 414.959L255.073 416.019L253.97 416.139C251.703 416.382 249.425 416.503 247.145 416.501ZM237.52 412.337C242.101 413.135 247.404 413.334 252.415 412.896C252.471 412.527 252.499 412.155 252.499 411.782C252.512 410.788 252.329 409.802 251.958 408.88C251.587 407.957 251.037 407.118 250.339 406.411C249.642 405.703 248.81 405.141 247.894 404.758C246.977 404.374 245.993 404.177 244.999 404.177C244.005 404.177 243.022 404.374 242.105 404.758C241.188 405.141 240.357 405.703 239.659 406.411C238.961 407.118 238.411 407.957 238.04 408.88C237.67 409.802 237.486 410.788 237.5 411.782C237.494 411.968 237.501 412.152 237.515 412.337H237.52Z" fill="#000072"/>
<path d="M253.349 416.223L252.939 414.859C252.642 413.862 252.491 412.826 252.493 411.784C252.491 409.579 253.16 407.425 254.411 405.608C255.662 403.792 257.436 402.398 259.497 401.613C261.558 400.828 263.81 400.688 265.952 401.213C268.095 401.737 270.027 402.9 271.493 404.548L272.189 405.328L271.801 406.298C271.085 408.092 270.249 409.497 269.241 410.595C266.083 414.034 259.624 415.461 254.762 416.053L253.349 416.223ZM263.375 404.279C261.386 404.281 259.479 405.072 258.072 406.479C256.666 407.885 255.875 409.792 255.872 411.781C255.872 412.016 255.884 412.25 255.904 412.481C261.119 411.679 265.025 410.184 266.75 408.308C267.344 407.632 267.837 406.873 268.215 406.056C266.862 404.91 265.148 404.28 263.375 404.279Z" fill="#000072"/>
</svg>
